<mxfile host="65bd71144e">
    <diagram id="972DSFXwn7RjbT6K-zB5" name="site">
        <mxGraphModel dx="794" dy="809" grid="0" gridSize="10" guides="1" tooltips="1" connect="1" arrows="1" fold="1" page="0" pageScale="1" pageWidth="850" pageHeight="1100" math="0" shadow="0">
            <root>
                <mxCell id="0"/>
                <mxCell id="1" parent="0"/>
                <mxCell id="2c5-KciDkkTBXjX6kxZS-54" style="edgeStyle=orthogonalEdgeStyle;html=1;fontFamily=Helvetica;fontSize=7;fontColor=#000000;startArrow=none;startFill=0;rounded=0;dashed=1;dashPattern=8 8;" parent="1" source="2c5-KciDkkTBXjX6kxZS-55" target="2c5-KciDkkTBXjX6kxZS-59" edge="1">
                    <mxGeometry relative="1" as="geometry"/>
                </mxCell>
                <mxCell id="2c5-KciDkkTBXjX6kxZS-65" style="html=1;rounded=0;edgeStyle=orthogonalEdgeStyle;" parent="1" source="2c5-KciDkkTBXjX6kxZS-55" target="2c5-KciDkkTBXjX6kxZS-62" edge="1">
                    <mxGeometry relative="1" as="geometry">
                        <Array as="points">
                            <mxPoint x="241" y="374"/>
                        </Array>
                    </mxGeometry>
                </mxCell>
                <mxCell id="2c5-KciDkkTBXjX6kxZS-55" value="DNS&#10;(registrar)" style="shape=image;verticalLabelPosition=bottom;labelBackgroundColor=default;verticalAlign=top;aspect=fixed;imageAspect=0;image=data:image/png,iVBORw0KGgoAAAANSUhEUgAAAOEAAADhCAMAAAAJbSJIAAAAkFBMVEX9UAD////9QgD9SgD9TQD9PQD9RQD9QAD/49z+187+vKv//vz/7Of/+vj9bD7+0MT+z8P9gV3/3tX+lnr+ybz9XSP/9vL+oYn+hWL+nIL9dk3+wbP9Yiz9VQ3+qpT9iGn+sZ3+knT+sJz+uKb9ZjT9e1T9Whr/5+H+q5X+pY39b0L+k3b9c0n+xrf9YCn+jW3ZYkwSAAAL80lEQVR4nOWdV2PiOhCFZTUTegudEBJCNnuX3f//765MddHIagbbnKd9SVZfjtVGMxIKCtek0Vu+T7ezRXe3X68RWu9X3cVsO31f9hqT4v97VOQv/x6/bXaYhZhzQiil6CLxb0I4xyHDu82v8XeRjSiKsH2Yd0OBRm5YclHCxd+gOz+0C2pJEYTt5oayfLYUJ6ObZhGU3gn7IyToDOBuEpRo1PfdIK+EneUgxEbeZb3E4eDQ8dkoj4TjAcN25qWsxGww9tcsX4TDEfeCd4Hko6GnlvkhbK6YP7wzJFs1vbTNA2F7jrlL34NEOZ57GFydCRsz7/bdRNim8WDC4VeBfCfGhWOHdCJsLArmOzM6+ehA2B7cge/EOHDoj9aEndGd+E6MI+tVgC3hp8fZT4sRf96VcPiK78oXCb/aDTk2hK0tK2L+yxNl29Z9CPvkvh/oTYRY7DyMCVsz9iC+SGxmbKMp4cvDDDyJkJdiCecP6YFxUTYvkHCy4g/mi8RXRhE6E8Je+GgDT6JhrxjCn0cOMUmxnyIIv+4/ycPCX94JJ6+PHUPTInvdzqhJ2ChkF+8iyjX3VHqEvYdPEllRpjfeaBE2yzPGxMW0QlU6hB/lBBSI734ISzRLpKUza+QTTssLKBCn7oSlBtRBzCMs8Sd6Uu6HmkNY2kHmprzhRk1Y0mkiqZxJQ0nYqwKgQFRO/SrCRjUABaJqAacgnJRuLQqJcsUyXEH4WhVAgfhqQ/hVru2SWgTeL4KEP2Xa8OYrBKdFiLAiw+hN4IAKEE7CR7fYWBgYbQDCVXVGmYvozoRwXoa4qKm4PFQsJXypWic8iUkD/jLCllPi1uNEiezYRkY4q9JMGBeZ6RH2q/mNRmKS88UsYauqDkaSfKdZwm2lCbf5hMPqfqORWCadIUNYoR2FTNldRprws1oL7qwyeTcpwk7VAQViR0k4qvIwcxIZqQjb1R5mTmJtBeGg+hYKEwcwYWWCa2olQ28JwkUdLBQmLiDCik/2NyWm/ThhpaJrKiUibzHCmvTCSPGeGCOs7LYwK7KREdZiLrwoNifeCOf1sVCYOJUQVn9FGhfOEjarGECExZsZwgrGgFWiqzRhbWb7i66z/oWwBtumpK6bqAthvXphJJ4kHNdrJI2ExwnCWmwMk7psE0+EnbqNM5FYJ0a4rN9HKj7TQ4zQ60ca3XQRpoTtrlmg0W+yraM+f6YnQp9n2nw/Xb6k1X8fMOPhmrLVW78x7H9YFhuHN8K+x4+UQEU7nTfDgpTw93WrPrGqRsL9K6G/6R5zxBdQQeuka2IjSwSv23vzNp4m/SMh8rUmZb1PTggCc7AG+oiZ7JGdMSJFF0Jve18mJtnWJqRrsEiwq9vMcJn+0dba2IfjPjgi9LVxOh/ezbH0tPn0oWqOaamo7lHmm4PjFioi3HjqhuG5A36R7CneRW96f00mK8A3DiQdwzURoadeyC+pZROWjMkmvjWtYZv8k/3s0HhSoydCX90wvI6hc1cTpRZajIjR7xGEBz/dkL9dWyJM/A2aqPG/yS0Mgn+mnyk/HAk9BdlwbACdc3l+UqRf+YiAhbqd+KZo+SEIu176If8Va0onpA4mQhYGH6aEtHsk9LMo5Yk5cKowMbedkIXmHkZLUxR8eyHkH4m2CBOBZMggN2IiyYk5y7gfovBbEPoJYPBUY344XAWRYyJoYWC+qsFjQWhuvUQ8XZrTsjYRttDicEwM8MjPioZkmvPGQ/CajncVIgPX7RaHY2JVg4Kdh6GUZ6/HaeFb2DkjRVPJf9APfVusTMSHhLycyGQtPJoI3g2oMBG20CrUggM08bBmk95w1OKKShawsel8n5vsjqjZBDXcJwtKpU36UJj4CZno2UIUNlDP/SvFQAEgp3tTE31biHAPLZ0nCwrV3bzz8AA1GDARttAyUYQvkXLk1hJkYbTbgU2UjuCwhbanf/wdTV2nQ9DCINhThYmy3gFbaJuuRabIOa0bZ2JGFzWx0sSsi2Cs1f4Al2zRzHHCp2uQIdqSZ2NmMf60YAv/2LaSztDCkRD+Do8IOX+AhIDCpcDlDJ4ukOP+N/czVH7ESTHw9sff1o2kXbRzAkSKSf0EoG8iBy+AcKk026G9C5+qxPgygmmbGBZgIRJ8a/sfRkoLL/OsrokcrOR1KhZcuxHSv2Drb5MQvCJIHD2H8GGHy1Dh5iDS2uQqlgSxsEQs3JrSI+s9FXvc+FpQy0TYQtctuouL8O1+iWCTjomJcGtCjnXza5exVDvWpDDxsjvlRVm4Ryv7H4bjhanIfb6JqXBrTH3HHfrKYU0DW5gJ3MMmHk4A6XDrTY5ZoWJNY78uheP2mRCscoeFJOHWq8aOFop1qfXeIjr1kEtyCppjoixWd9Jf163PzH5/CFv4kw0bAMGqSMJESbj1LFcLo/2h7R4fPj7ryFqlhIDXdc41u2KPbxungc+xJRai05E6REGhqeLgHOrk77axNvoHarDUQrWJ4Ipt73ziwJe28VLYwinwJ1ONJlhuoruFUbzULuYNp5MAFuaYKN85mZ8XZhQ2LM8t4BvS4KttYBNXVLr79ZHXyyZ2Z0/w1VqKPxg8rfdCaQTDg4XR2ZPVylZhoepoEDRxRyVRKB8WHs8PLc6AZXl1uRYqTWSSSKKPnNDjGbBGBk9aITiQqnNx4fV1l2aiwZKIsbnEttMuF8PKQpWJLywT0feS1nvMxTA/Ho/XoCb1X84XD5v4O22iFwsR+7bKiQLjfrlZjvBGV5iYPFmTHNxYKLTLawNjKvn7FNjEPyRhIngMbqRzXptxbiLkoUaiKmzikCVShfzkS55zE43zS6F+qJN2BkecFiSW7uV+Mn363w62OcK2FqqihsLEW9alp8zzc46weZ63fD7UWzrAJn7dTPRk4SXP23xVI/1MNWcdOHrfYNfQj6/yiEuuvnm9hWxdqptLEIJH2f84P32n0BbTVNd6C/OOKDn5/dSdVuEk92BPjkVT3o5irjUzFgukTDPH+q3icEUNIiR8e/FVK3ire7KpXSN/E5m8Rvfv8z/QaW9ngRH3VioYq12zqT+k7O3azped2S8gcETjx2M1a6z+0C5dn7PZ58tweJjuzd/y4vhf86WR0rD/tvN5L0CshtS2DvhY8Gv51Djh6Vph+4pf4H+I1wEfal/LXf96/PrfqfAE92LU/26TJ7ifpv53DNX/nqgnuOur/ve1PcGde/W/N9Hb1QolkPzuyye4v7Qu1winsgye6x7hupgI3wVdFxMV93nXY5uoupO9HnOi8l79Omyi1G8jPMH7FvV/o+QJ3pmp+oyh8VZQ/d97eoI3u+r/7lqFH0nQfTvvCd4/rP8blk/wDmkl48Nmb8k+wXvA9X/T+Qne5a7Y6082b6v7KKu6mxSXV6gIJ15zP4oU5WA2oJKwOkFwuIQnh7AqAypcNZ9LGDSrgMjA62E0CM1yDh8jBhbiaBEGP2VHZOBEqEkYTMuNyMCrl7QJy42YD6hBWOYPNfcT1SMs73CTN8hoE5Z10siZJkwIxdRfvgUcVU/0hoRBo3RrVMpVSzVzwmDyWq7NFHlVLLatCMV+sUyBjRDeD9oTlmnW0JklLAiDHi5HZ6RYb4wxJwwmXgs+bMV3ul3QnDAIrF4H8yrKwHtcvRAGL+SxYyoh4PVUngiD1uyRAw6bgUW23giDoP8wGwkB79r0Shi0tg/pjZRtjQ20JAyC4ev9I+L4FbxRpQDCKO/mvp8qkb4wUSRh0BnZPZ1px8dG4DXKhREGQXtwJ0bCBuDzQYUSij3V4g6MhC3sOqAPQjHkWD7zejc+Z0Lh46ZARsI2mvvcAglFf5z6rVC+iHI8deh/HgmFmivvRhK2Am91NZIfQtEhR9zjDEkwHzl2v6t8EQqNB8wLJMFsAF7Xby6PhGIVcBjYXkBwFiU4HBysZ3eZvBJG6o8Qs3tIHRHO0Mhi96CWd0KhdnNDBaWJl1TQ0U3Tw9CZURGEkdqHeTe66CKXU7BhFnbnhyLoIhVFeNT3+G2zE+3HnBNCY7foiX8TwjkOGd5tfo2/i2xEoYQnTRq95ft0O1t0d/v1GqH1ftVdzLbT92WvYRQ1s9P/bd6k/Ti4NuoAAAAASUVORK5CYII=;" parent="1" vertex="1">
                    <mxGeometry x="210.06" y="451.6" width="60.8" height="60.8" as="geometry"/>
                </mxCell>
                <mxCell id="2c5-KciDkkTBXjX6kxZS-56" value="&lt;span style=&quot;color: rgb(0, 0, 0); font-family: Helvetica; font-size: 12px; font-style: normal; font-variant-ligatures: normal; font-variant-caps: normal; font-weight: 400; letter-spacing: normal; orphans: 2; text-align: center; text-indent: 0px; text-transform: none; widows: 2; word-spacing: 0px; -webkit-text-stroke-width: 0px; background-color: rgb(255, 255, 255); text-decoration-thickness: initial; text-decoration-style: initial; text-decoration-color: initial; float: none; display: inline !important;&quot;&gt;Github Code Repository&lt;/span&gt;" style="text;html=1;strokeColor=none;fillColor=none;align=center;verticalAlign=middle;whiteSpace=wrap;rounded=0;labelBackgroundColor=none;fontFamily=Helvetica;fontSize=7;fontColor=#000000;" parent="1" vertex="1">
                    <mxGeometry x="557.5" y="518" width="158" height="30" as="geometry"/>
                </mxCell>
                <mxCell id="2c5-KciDkkTBXjX6kxZS-64" style="edgeStyle=none;html=1;" parent="1" source="2c5-KciDkkTBXjX6kxZS-59" target="2c5-KciDkkTBXjX6kxZS-62" edge="1">
                    <mxGeometry relative="1" as="geometry"/>
                </mxCell>
                <mxCell id="2c5-KciDkkTBXjX6kxZS-73" style="edgeStyle=orthogonalEdgeStyle;rounded=0;html=1;entryX=0;entryY=0.5;entryDx=0;entryDy=0;entryPerimeter=0;dashed=1;dashPattern=8 8;" parent="1" source="2c5-KciDkkTBXjX6kxZS-59" target="2c5-KciDkkTBXjX6kxZS-71" edge="1">
                    <mxGeometry relative="1" as="geometry"/>
                </mxCell>
                <mxCell id="2c5-KciDkkTBXjX6kxZS-59" value="Github DNS" style="shape=image;verticalLabelPosition=bottom;labelBackgroundColor=default;verticalAlign=top;aspect=fixed;imageAspect=0;image=https://cdn-icons-png.flaticon.com/512/25/25231.png;" parent="1" vertex="1">
                    <mxGeometry x="372" y="446" width="72" height="72" as="geometry"/>
                </mxCell>
                <mxCell id="2c5-KciDkkTBXjX6kxZS-67" style="edgeStyle=orthogonalEdgeStyle;rounded=0;html=1;" parent="1" source="2c5-KciDkkTBXjX6kxZS-60" target="2c5-KciDkkTBXjX6kxZS-66" edge="1">
                    <mxGeometry relative="1" as="geometry"/>
                </mxCell>
                <mxCell id="2c5-KciDkkTBXjX6kxZS-74" style="edgeStyle=orthogonalEdgeStyle;rounded=0;html=1;entryX=1;entryY=0.5;entryDx=0;entryDy=0;entryPerimeter=0;dashed=1;dashPattern=8 8;" parent="1" source="2c5-KciDkkTBXjX6kxZS-60" target="2c5-KciDkkTBXjX6kxZS-71" edge="1">
                    <mxGeometry relative="1" as="geometry"/>
                </mxCell>
                <mxCell id="2c5-KciDkkTBXjX6kxZS-60" value="" style="sketch=0;pointerEvents=1;shadow=0;dashed=0;html=1;strokeColor=none;fillColor=#505050;labelPosition=center;verticalLabelPosition=bottom;verticalAlign=top;outlineConnect=0;align=center;shape=mxgraph.office.servers.server_side_code;" parent="1" vertex="1">
                    <mxGeometry x="612" y="453" width="49" height="56" as="geometry"/>
                </mxCell>
                <mxCell id="2c5-KciDkkTBXjX6kxZS-62" value="codeblind.ai" style="html=1;labelPosition=center;verticalLabelPosition=middle;verticalAlign=top;align=center;fontSize=12;outlineConnect=0;spacingTop=-6;sketch=0;shape=mxgraph.sitemap.page;fillColor=#0000FF;strokeColor=#001DBC;fontColor=#ffffff;" parent="1" vertex="1">
                    <mxGeometry x="362.5" y="343" width="91" height="62" as="geometry"/>
                </mxCell>
                <mxCell id="2c5-KciDkkTBXjX6kxZS-68" style="edgeStyle=orthogonalEdgeStyle;rounded=0;html=1;dashed=1;dashPattern=8 8;" parent="1" source="2c5-KciDkkTBXjX6kxZS-66" target="2c5-KciDkkTBXjX6kxZS-62" edge="1">
                    <mxGeometry relative="1" as="geometry"/>
                </mxCell>
                <mxCell id="2c5-KciDkkTBXjX6kxZS-76" value="publish" style="edgeLabel;html=1;align=center;verticalAlign=middle;resizable=0;points=[];" parent="2c5-KciDkkTBXjX6kxZS-68" vertex="1" connectable="0">
                    <mxGeometry x="0.1712" relative="1" as="geometry">
                        <mxPoint x="11" y="-10" as="offset"/>
                    </mxGeometry>
                </mxCell>
                <mxCell id="2c5-KciDkkTBXjX6kxZS-75" style="edgeStyle=orthogonalEdgeStyle;rounded=0;html=1;" parent="1" source="2c5-KciDkkTBXjX6kxZS-66" target="2c5-KciDkkTBXjX6kxZS-60" edge="1">
                    <mxGeometry relative="1" as="geometry"/>
                </mxCell>
                <mxCell id="2c5-KciDkkTBXjX6kxZS-66" value="" style="shape=image;verticalLabelPosition=bottom;labelBackgroundColor=default;verticalAlign=top;aspect=fixed;imageAspect=0;image=https://miro.medium.com/v2/resize:fit:1075/0*UxnbDjb0UDNlZIPl.png;clipPath=inset(3.59% 37% 25.82% 28%);" parent="1" vertex="1">
                    <mxGeometry x="610.74" y="347" width="51.53" height="53" as="geometry"/>
                </mxCell>
                <mxCell id="2c5-KciDkkTBXjX6kxZS-69" value="&lt;span style=&quot;color: rgb(0, 0, 0); font-family: Helvetica; font-size: 12px; font-style: normal; font-variant-ligatures: normal; font-variant-caps: normal; font-weight: 400; letter-spacing: normal; orphans: 2; text-align: center; text-indent: 0px; text-transform: none; widows: 2; word-spacing: 0px; -webkit-text-stroke-width: 0px; background-color: rgb(255, 255, 255); text-decoration-thickness: initial; text-decoration-style: initial; text-decoration-color: initial; float: none; display: inline !important;&quot;&gt;Github Actions&lt;/span&gt;" style="text;html=1;strokeColor=none;fillColor=none;align=center;verticalAlign=middle;whiteSpace=wrap;rounded=0;labelBackgroundColor=none;fontFamily=Helvetica;fontSize=7;fontColor=#000000;" parent="1" vertex="1">
                    <mxGeometry x="589" y="329" width="98.25" height="18" as="geometry"/>
                </mxCell>
                <mxCell id="2c5-KciDkkTBXjX6kxZS-71" value="" style="verticalLabelPosition=bottom;html=1;verticalAlign=top;align=center;strokeColor=none;fillColor=#00BEF2;shape=mxgraph.azure.startup_task;pointerEvents=1;" parent="1" vertex="1">
                    <mxGeometry x="509" y="468" width="24" height="27" as="geometry"/>
                </mxCell>
                <mxCell id="2c5-KciDkkTBXjX6kxZS-72" value="&lt;span style=&quot;color: rgb(0, 0, 0); font-family: Helvetica; font-size: 12px; font-variant-ligatures: normal; font-variant-caps: normal; font-weight: 400; letter-spacing: normal; orphans: 2; text-align: center; text-indent: 0px; text-transform: none; widows: 2; word-spacing: 0px; -webkit-text-stroke-width: 0px; background-color: rgb(255, 255, 255); text-decoration-thickness: initial; text-decoration-style: initial; text-decoration-color: initial; float: none; display: inline !important;&quot;&gt;pages&amp;nbsp;&lt;/span&gt;&lt;span style=&quot;color: rgb(0, 0, 0); font-family: Helvetica; font-size: 12px; font-variant-ligatures: normal; font-variant-caps: normal; font-weight: 400; letter-spacing: normal; orphans: 2; text-align: center; text-indent: 0px; text-transform: none; widows: 2; word-spacing: 0px; -webkit-text-stroke-width: 0px; background-color: rgb(255, 255, 255); text-decoration-thickness: initial; text-decoration-style: initial; text-decoration-color: initial; float: none; display: inline !important;&quot;&gt;config&lt;/span&gt;" style="text;whiteSpace=wrap;html=1;fontStyle=2" parent="1" vertex="1">
                    <mxGeometry x="487" y="443" width="74.15" height="27" as="geometry"/>
                </mxCell>
                <mxCell id="2c5-KciDkkTBXjX6kxZS-79" value="&lt;meta charset=&quot;utf-8&quot;&gt;&lt;span style=&quot;color: rgb(0, 0, 0); font-family: Helvetica; font-size: 12px; font-style: normal; font-variant-ligatures: normal; font-variant-caps: normal; font-weight: 400; letter-spacing: normal; orphans: 2; text-align: center; text-indent: 0px; text-transform: none; widows: 2; word-spacing: 0px; -webkit-text-stroke-width: 0px; background-color: rgb(255, 255, 255); text-decoration-thickness: initial; text-decoration-style: initial; text-decoration-color: initial; float: none; display: inline !important;&quot;&gt;dns target&lt;/span&gt;" style="text;whiteSpace=wrap;html=1;" parent="1" vertex="1">
                    <mxGeometry x="239.0006082231571" y="350.9975226925581" width="81" height="36" as="geometry"/>
                </mxCell>
                <mxCell id="2c5-KciDkkTBXjX6kxZS-80" value="&lt;span style=&quot;color: rgb(0, 0, 0); font-family: Helvetica; font-size: 12px; font-style: normal; font-variant-ligatures: normal; font-variant-caps: normal; font-weight: 400; letter-spacing: normal; orphans: 2; text-align: center; text-indent: 0px; text-transform: none; widows: 2; word-spacing: 0px; -webkit-text-stroke-width: 0px; background-color: rgb(255, 255, 255); text-decoration-thickness: initial; text-decoration-style: initial; text-decoration-color: initial; float: none; display: inline !important;&quot;&gt;dns servers&lt;/span&gt;" style="text;whiteSpace=wrap;html=1;" parent="1" vertex="1">
                    <mxGeometry x="289.0006082231571" y="458.9975226925581" width="81" height="36" as="geometry"/>
                </mxCell>
            </root>
        </mxGraphModel>
    </diagram>
    <diagram id="OQ535q34x3rYeUL3MLRj" name="layout">
        <mxGraphModel dx="794" dy="409" grid="0" gridSize="10" guides="1" tooltips="1" connect="1" arrows="1" fold="1" page="0" pageScale="1" pageWidth="850" pageHeight="1100" math="0" shadow="0">
            <root>
                <mxCell id="0"/>
                <mxCell id="1" parent="0"/>
                <mxCell id="110" value="HOME OFFICE" style="fillColor=none;strokeColor=#147EBA;dashed=1;verticalAlign=top;fontStyle=2;fontColor=#147EBA;labelBackgroundColor=#FFFFFF;fontFamily=Helvetica;fontSize=7;" parent="1" vertex="1">
                    <mxGeometry x="159" y="707.8" width="237" height="130" as="geometry"/>
                </mxCell>
                <mxCell id="36" value="&lt;font color=&quot;#000000&quot;&gt;Default VPC (sa-east-1)&lt;/font&gt;" style="points=[[0,0],[0.25,0],[0.5,0],[0.75,0],[1,0],[1,0.25],[1,0.5],[1,0.75],[1,1],[0.75,1],[0.5,1],[0.25,1],[0,1],[0,0.75],[0,0.5],[0,0.25]];outlineConnect=0;gradientColor=none;html=1;whiteSpace=wrap;fontSize=12;fontStyle=0;container=1;pointerEvents=0;collapsible=0;recursiveResize=0;shape=mxgraph.aws4.group;grIcon=mxgraph.aws4.group_vpc;strokeColor=#000000;fillColor=none;verticalAlign=top;align=left;spacingLeft=30;fontColor=#AAB7B8;dashed=0;" parent="1" vertex="1">
                    <mxGeometry x="174" y="430" width="243" height="171" as="geometry"/>
                </mxCell>
                <mxCell id="42" value="Public subnet" style="points=[[0,0],[0.25,0],[0.5,0],[0.75,0],[1,0],[1,0.25],[1,0.5],[1,0.75],[1,1],[0.75,1],[0.5,1],[0.25,1],[0,1],[0,0.75],[0,0.5],[0,0.25]];outlineConnect=0;gradientColor=none;html=1;whiteSpace=wrap;fontSize=12;fontStyle=0;container=1;pointerEvents=0;collapsible=0;recursiveResize=0;shape=mxgraph.aws4.group;grIcon=mxgraph.aws4.group_security_group;grStroke=0;strokeColor=#248814;fillColor=#E9F3E6;verticalAlign=top;align=left;spacingLeft=30;fontColor=#248814;dashed=0;" parent="36" vertex="1">
                    <mxGeometry x="10" y="30" width="204" height="136" as="geometry"/>
                </mxCell>
                <mxCell id="83" style="rounded=0;html=1;dashed=1;dashPattern=1 1;fontFamily=Tahoma;fontSize=9;fontColor=default;startArrow=none;startFill=0;endArrow=none;endFill=0;" parent="42" source="41" target="81" edge="1">
                    <mxGeometry relative="1" as="geometry"/>
                </mxCell>
                <mxCell id="41" value="" style="sketch=0;outlineConnect=0;fontColor=#232F3E;gradientColor=none;strokeColor=#ffffff;fillColor=#232F3E;dashed=0;verticalLabelPosition=middle;verticalAlign=bottom;align=center;html=1;whiteSpace=wrap;fontSize=10;fontStyle=1;spacing=3;shape=mxgraph.aws4.productIcon;prIcon=mxgraph.aws4.ec2;" parent="42" vertex="1">
                    <mxGeometry x="82" y="40" width="50" height="80" as="geometry"/>
                </mxCell>
                <mxCell id="49" value="" style="sketch=0;outlineConnect=0;fontColor=#232F3E;gradientColor=none;fillColor=#D45B07;strokeColor=none;dashed=0;verticalLabelPosition=bottom;verticalAlign=top;align=center;html=1;fontSize=12;fontStyle=0;aspect=fixed;pointerEvents=1;shape=mxgraph.aws4.elastic_ip_address;labelBackgroundColor=none;fontFamily=Tahoma;" parent="42" vertex="1">
                    <mxGeometry x="142" y="53" width="48" height="20" as="geometry"/>
                </mxCell>
                <mxCell id="81" value="" style="sketch=0;outlineConnect=0;fontColor=#232F3E;gradientColor=none;fillColor=#3F8624;strokeColor=none;dashed=0;verticalLabelPosition=bottom;verticalAlign=top;align=center;html=1;fontSize=12;fontStyle=0;aspect=fixed;pointerEvents=1;shape=mxgraph.aws4.elastic_block_store_volume_gp3;labelBackgroundColor=#FFFFFF;fontFamily=Tahoma;" parent="42" vertex="1">
                    <mxGeometry x="22" y="59" width="34.46" height="42" as="geometry"/>
                </mxCell>
                <mxCell id="88" value="&lt;meta charset=&quot;utf-8&quot; style=&quot;font-size: 7px;&quot;&gt;&lt;span style=&quot;border-color: var(--border-color); font-size: 7px; font-style: normal; font-variant-ligatures: normal; font-variant-caps: normal; font-weight: 400; letter-spacing: normal; orphans: 2; text-align: center; text-indent: 0px; text-transform: none; widows: 2; word-spacing: 0px; -webkit-text-stroke-width: 0px; background-color: rgb(255, 255, 255); text-decoration-thickness: initial; text-decoration-style: initial; text-decoration-color: initial; box-sizing: border-box; color: rgb(51, 51, 51); font-family: AmazonEmber, &amp;quot;Helvetica Neue&amp;quot;, Helvetica, Arial, sans-serif;&quot; data-rate-code=&quot;M6UGCCQ3CDJQAA37.JRTCKXETXF.6YS6EN2CT7&quot; data-metered-unit=&quot;ec2/ebs.[Storage General Purpose gp3 GB Mo]&quot;&gt;$0.08&lt;/span&gt;&lt;span style=&quot;border-color: var(--border-color); font-size: 7px; font-style: normal; font-variant-ligatures: normal; font-variant-caps: normal; font-weight: 400; letter-spacing: normal; orphans: 2; text-align: center; text-indent: 0px; text-transform: none; widows: 2; word-spacing: 0px; -webkit-text-stroke-width: 0px; background-color: rgb(255, 255, 255); text-decoration-thickness: initial; text-decoration-style: initial; text-decoration-color: initial; color: rgb(51, 51, 51); font-family: AmazonEmber, &amp;quot;Helvetica Neue&amp;quot;, Helvetica, Arial, sans-serif;&quot;&gt;/GB-mo&lt;/span&gt;" style="text;whiteSpace=wrap;html=1;fontSize=7;" parent="42" vertex="1">
                    <mxGeometry x="14.997100440492005" y="97.99543272627147" width="71" height="36" as="geometry"/>
                </mxCell>
                <mxCell id="87" value="&lt;span style=&quot;color: rgb(0, 0, 0); font-family: Helvetica; font-size: 7px; font-style: normal; font-variant-ligatures: normal; font-variant-caps: normal; font-weight: 400; letter-spacing: normal; orphans: 2; text-align: center; text-indent: 0px; text-transform: none; widows: 2; word-spacing: 0px; -webkit-text-stroke-width: 0px; background-color: rgb(255, 255, 255); text-decoration-thickness: initial; text-decoration-style: initial; text-decoration-color: initial; float: none; display: inline !important;&quot;&gt;&amp;nbsp; compute&lt;br style=&quot;font-size: 7px;&quot;&gt;$ 0.21 / Hr&lt;/span&gt;" style="text;whiteSpace=wrap;html=1;fontSize=7;" parent="42" vertex="1">
                    <mxGeometry x="85.99731320644946" y="88.99819868371833" width="61" height="36" as="geometry"/>
                </mxCell>
                <mxCell id="89" value="&lt;meta charset=&quot;utf-8&quot; style=&quot;font-size: 6px;&quot;&gt;&lt;span style=&quot;color: rgb(35, 47, 62); font-family: Tahoma; font-size: 6px; font-style: normal; font-variant-ligatures: normal; font-variant-caps: normal; font-weight: 400; letter-spacing: normal; orphans: 2; text-indent: 0px; text-transform: none; widows: 2; word-spacing: 0px; -webkit-text-stroke-width: 0px; text-decoration-thickness: initial; text-decoration-style: initial; text-decoration-color: initial; float: none; display: inline !important;&quot;&gt;EIP $3.95&lt;/span&gt;" style="text;whiteSpace=wrap;html=1;fontSize=6;fontFamily=Tahoma;align=center;labelBackgroundColor=default;" parent="42" vertex="1">
                    <mxGeometry x="136" y="69" width="54" height="20" as="geometry"/>
                </mxCell>
                <mxCell id="86" value="" style="rounded=0;whiteSpace=wrap;html=1;labelBackgroundColor=#FFFFFF;strokeColor=none;fontFamily=Tahoma;fontSize=7;fontColor=#333333;fillColor=#f5f5f5;fontStyle=1" parent="1" vertex="1">
                    <mxGeometry x="412" y="496" width="9" height="43" as="geometry"/>
                </mxCell>
                <mxCell id="44" value="" style="aspect=fixed;perimeter=ellipsePerimeter;html=1;align=center;shadow=0;dashed=0;spacingTop=3;image;image=img/lib/active_directory/internet_globe.svg;" parent="1" vertex="1">
                    <mxGeometry x="553" y="503" width="50" height="50" as="geometry"/>
                </mxCell>
                <mxCell id="47" value="" style="edgeStyle=orthogonalEdgeStyle;rounded=0;html=1;fontSize=7;fontColor=#000000;startArrow=none;startFill=0;endArrow=classic;endFill=1;" parent="1" source="43" target="44" edge="1">
                    <mxGeometry x="-0.4835" y="-16" relative="1" as="geometry">
                        <mxPoint as="offset"/>
                    </mxGeometry>
                </mxCell>
                <mxCell id="78" value="&lt;span style=&quot;color: rgb(0, 0, 0); font-family: Helvetica; font-size: 12px; font-style: normal; font-variant-ligatures: normal; font-variant-caps: normal; font-weight: 400; letter-spacing: normal; orphans: 2; text-indent: 0px; text-transform: none; widows: 2; word-spacing: 0px; -webkit-text-stroke-width: 0px; text-decoration-thickness: initial; text-decoration-style: initial; text-decoration-color: initial; float: none; display: inline !important;&quot;&gt;Global Internet&lt;/span&gt;" style="text;whiteSpace=wrap;html=1;fontSize=8;fontFamily=Tahoma;fontColor=default;align=center;labelBackgroundColor=none;" parent="1" vertex="1">
                    <mxGeometry x="545.4969143194902" y="466.00382468775695" width="69" height="36" as="geometry"/>
                </mxCell>
                <mxCell id="79" value="&lt;span style=&quot;color: rgb(0, 0, 0); font-family: Helvetica; font-size: 7px; font-style: normal; font-variant-ligatures: normal; font-variant-caps: normal; font-weight: 400; letter-spacing: normal; orphans: 2; text-align: center; text-indent: 0px; text-transform: none; widows: 2; word-spacing: 0px; -webkit-text-stroke-width: 0px; background-color: rgb(255, 255, 255); text-decoration-thickness: initial; text-decoration-style: initial; text-decoration-color: initial; float: none; display: inline !important;&quot;&gt;egress:&lt;br&gt;$ 0.15 / GB&lt;br&gt;&lt;span style=&quot;font-family: Tahoma;&quot;&gt;1,182,600 GB per month&lt;/span&gt;&lt;br&gt;&lt;/span&gt;" style="text;whiteSpace=wrap;html=1;fontSize=9;fontFamily=Tahoma;fontColor=default;" parent="1" vertex="1">
                    <mxGeometry x="468" y="481" width="94" height="33" as="geometry"/>
                </mxCell>
                <mxCell id="80" value="" style="sketch=0;points=[[0,0,0],[0.25,0,0],[0.5,0,0],[0.75,0,0],[1,0,0],[0,1,0],[0.25,1,0],[0.5,1,0],[0.75,1,0],[1,1,0],[0,0.25,0],[0,0.5,0],[0,0.75,0],[1,0.25,0],[1,0.5,0],[1,0.75,0]];outlineConnect=0;fontColor=#232F3E;gradientColor=#945DF2;gradientDirection=north;fillColor=#5A30B5;strokeColor=#ffffff;dashed=0;verticalLabelPosition=bottom;verticalAlign=top;align=center;html=1;fontSize=12;fontStyle=0;aspect=fixed;shape=mxgraph.aws4.resourceIcon;resIcon=mxgraph.aws4.route_53;labelBackgroundColor=#FFFFFF;fontFamily=Tahoma;" parent="1" vertex="1">
                    <mxGeometry x="398" y="431" width="19" height="19" as="geometry"/>
                </mxCell>
                <mxCell id="43" value="" style="sketch=0;outlineConnect=0;fontColor=#232F3E;gradientColor=none;fillColor=#232F3D;strokeColor=none;dashed=0;verticalLabelPosition=bottom;verticalAlign=top;align=center;html=1;fontSize=12;fontStyle=0;aspect=fixed;pointerEvents=1;shape=mxgraph.aws4.internet_alt22;" parent="1" vertex="1">
                    <mxGeometry x="377" y="489" width="78" height="78" as="geometry"/>
                </mxCell>
                <mxCell id="84" value="Internet Gateway" style="text;html=1;align=center;verticalAlign=middle;resizable=0;points=[];autosize=1;strokeColor=none;fillColor=none;labelBackgroundColor=default;fontSize=7;" parent="1" vertex="1">
                    <mxGeometry x="377" y="527" width="80" height="20" as="geometry"/>
                </mxCell>
                <mxCell id="97" value="" style="group" parent="1" vertex="1" connectable="0">
                    <mxGeometry x="170" y="740.303475959164" width="140.92000000000002" height="65" as="geometry"/>
                </mxCell>
                <mxCell id="94" value="" style="shape=image;verticalLabelPosition=bottom;labelBackgroundColor=default;verticalAlign=top;aspect=fixed;imageAspect=0;image=data:image/png,iVBORw0KGgoAAAANSUhEUgAAAewAAACqCAIAAADgPuvyAAAKqGlDQ1BJQ0MgUHJvZmlsZQAASImVlwdQk9kWgO//p4eEFggdQm+CdAJICT2AgHQQlZCEEEoIgdDsyOIKrgUVEbCALgoouCpFVhGxYFsUKyq6IIuAsi4WbKi8HxiCu2/ee/POzMn55uTcc8+5c+/M+QEgk1hCYQosC0CqIFMU4uNOi4qOoeGGAR5ggRKgAiMWO0PICA4OAIjM2b/L+/sAmrZ3zKZz/fv//1XkONwMNgBQMMLxnAx2KsKnEH3OFooyAUBVIn7d7EzhNHcgrCBCCkT47jTzZnlkmuNn+ctMTFiIBwBopCs8icUS8QAgqSN+Whabh+QhLULYQsDhCxCertclNTWNg/BRhI2QGCHC0/np8d/l4f0tZ7wkJ4vFk/BsLzOC9+RnCFNYuf/ncfxvSU0Rz+1hgCgpUeQbglhp5Mx6k9P8JSyIDwyaYz5nJn6GE8W+4XPMzvCImWMOy9NfsjYlMGCOE/jeTEmeTGbYHHMzvELnWJQWItkrQeTBmGOWaH5fcXK4xJ/IZUry5yWGRc5xFj8icI4zkkP952M8JH6ROERSP1fg4z6/r7ek99SM7/rlMyVrMxPDfCW9s+br5woY8zkzoiS1cbieXvMx4ZJ4Yaa7ZC9hSrAknpviI/FnZIVK1mYiF3J+bbDkDJNYfsFzDKyBDfABAcAe2AILADK5OZnTTXikCXNFfF5iJo2BvC4ujSlgmy+gWVlYWQMw/VZnr8Lb3pk3CFHx8z4hFbnCZYhzYN63oheAFk0AZLbM+wyQ9yPrB8D5drZYlDXrQ0//YAARyAAFoAI0gS4wAmbACtgBJ+AGvIAfCAJhIBosB2yQCFKBCGSDVWA9KATFYBvYBcrBfnAQHAHHwAnQAs6A8+AyuA5ugXvgMegHQ+AlGAfvwSQEQTiIDFEgFUgL0odMISuIDrlAXlAAFAJFQ3EQDxJAYmgVtAEqhkqgcqgKqoV+gU5D56GrUA/0EBqARqE30GcYBZNgBVgDNoAXwnSYAfvDYfAymAenw3lwAbwFLoOr4aNwM3wevg7fg/vhl/AECqCkUFSUNsoMRUd5oIJQMagElAi1BlWEKkVVoxpQbagu1B1UP2oM9QmNRVPQNLQZ2gntiw5Hs9Hp6DXozehy9BF0M/oi+g56AD2O/oYhY9QxphhHDBMTheFhsjGFmFJMDaYJcwlzDzOEeY/FYqlYQ6w91hcbjU3CrsRuxu7FNmI7sD3YQewEDodTwZninHFBOBYuE1eI24M7ijuHu40bwn3ES+G18FZ4b3wMXoDPx5fi6/Dt+Nv4YfwkQZagT3AkBBE4hFzCVsIhQhvhJmGIMEmUIxoSnYlhxCTiemIZsYF4idhHfCslJaUj5SC1RIovtU6qTOq41BWpAalPJHmSCcmDFEsSk7aQDpM6SA9Jb8lksgHZjRxDziRvIdeSL5Cfkj9KU6TNpZnSHOm10hXSzdK3pV/JEGT0ZRgyy2XyZEplTsrclBmTJcgayHrIsmTXyFbInpZ9IDshR5GzlAuSS5XbLFcnd1VuRB4nbyDvJc+RL5A/KH9BfpCCouhSPChsygbKIcolypACVsFQgamQpFCscEyhW2FcUV7RRjFCMUexQvGsYj8VRTWgMqkp1K3UE9T71M9KGkoMJa7SJqUGpdtKH5TVlN2UucpFyo3K95Q/q9BUvFSSVbartKg8UUWrmqguUc1W3ad6SXVMTUHNSY2tVqR2Qu2ROqxuoh6ivlL9oPoN9QkNTQ0fDaHGHo0LGmOaVE03zSTNnZrtmqNaFC0XLb7WTq1zWi9oijQGLYVWRrtIG9dW1/bVFmtXaXdrT+oY6oTr5Os06jzRJerSdRN0d+p26o7raekt1lulV6/3SJ+gT9dP1N+t36X/wcDQINJgo0GLwYihsiHTMM+w3rDPiGzkapRuVG101xhrTDdONt5rfMsENrE1STSpMLlpCpvamfJN95r2LMAscFggWFC94IEZyYxhlmVWbzZgTjUPMM83bzF/tVBvYczC7Qu7Fn6zsLVIsThk8dhS3tLPMt+yzfKNlYkV26rC6q412drbeq11q/VrG1Mbrs0+m15biu1i2422nbZf7eztRHYNdqP2evZx9pX2D+gK9GD6ZvoVB4yDu8NahzMOnxztHDMdTzj+5WTmlOxU5zSyyHARd9GhRYPOOs4s5yrnfheaS5zLAZd+V21Xlmu16zM3XTeOW43bMMOYkcQ4ynjlbuEucm9y/+Dh6LHao8MT5enjWeTZ7SXvFe5V7vXUW8eb513vPe5j67PSp8MX4+vvu933AVODyWbWMsf97P1W+130J/mH+pf7PwswCRAFtC2GF/st3rG4L1A/UBDYEgSCmEE7gp4EGwanB/+6BLskeEnFkuchliGrQrpCKaErQutC34e5h20NexxuFC4O74yQiYiNqI34EOkZWRLZH7UwanXU9WjVaH50awwuJiKmJmZiqdfSXUuHYm1jC2PvLzNclrPs6nLV5SnLz66QWcFacTIOExcZVxf3hRXEqmZNxDPjK+PH2R7s3eyXHDfOTs4o15lbwh1OcE4oSRjhOfN28EYTXRNLE8f4Hvxy/usk36T9SR+Sg5IPJ0+lRKY0puJT41JPC+QFyYKLaZppOWk9QlNhobA/3TF9V/q4yF9UkwFlLMtozVRAhqIbYiPxD+KBLJesiqyP2RHZJ3PkcgQ5N3JNcjflDud55/28Er2SvbJzlfaq9asGVjNWV62B1sSv6Vyru7Zg7dA6n3VH1hPXJ6//Ld8ivyT/3YbIDW0FGgXrCgZ/8PmhvlC6UFT4YKPTxv0/on/k/9i9yXrTnk3fijhF14otikuLv2xmb772k+VPZT9NbUnY0r3Vbuu+bdhtgm33t7tuP1IiV5JXMrhj8Y7mnbSdRTvf7Vqx62qpTen+3cTd4t39ZQFlrXv09mzb86U8sfxehXtFY6V65abKD3s5e2/vc9vXsF9jf/H+zwf4B3qrfKqaqw2qSw9iD2YdfH4o4lDXz/Sfa2tUa4prvh4WHO4/EnLkYq19bW2det3WerheXD96NPborWOex1obzBqqGqmNxcfBcfHxF7/E/XL/hP+JzpP0kw2n9E9VNlGaipqh5tzm8ZbElv7W6Nae036nO9uc2pp+Nf/18BntMxVnFc9ubSe2F7RPncs7N9Eh7Bg7zzs/2Lmi8/GFqAt3Ly652H3J/9KVy96XL3Qxus5dcb5y5qrj1dPX6Ndarttdb75he6PpN9vfmrrtuptv2t9sveVwq61nUU/7bdfb5+943rl8l3n3+r3Aez33w+/3Poh90N/L6R15mPLw9aOsR5OP1/Vh+oqeyD4pfar+tPp3498b++36zw54Dtx4Fvrs8SB78OUfGX98GSp4Tn5eOqw1XDtiNXJm1Hv01oulL4ZeCl9OjhX+Kfdn5SujV6f+cvvrxnjU+NBr0eupN5vfqrw9/M7mXedE8MTT96nvJz8UfVT5eOQT/VPX58jPw5PZX3Bfyr4af2375v+tbyp1akrIErFmRgEUonBCAgBvDgNAjgaAcgsA4tLZWXpGoNn5f4bAf+LZeXtG7ACo6QBgeuQKXAdAFaIGiMq4ARCMaJgbgK2tJTo3987M6NOiiXwjZDsCaJ9iX+4BZfAPmZ3fv6v7nxZIsv7N/gvZ7QNGtGPIOAAAADhlWElmTU0AKgAAAAgAAYdpAAQAAAABAAAAGgAAAAAAAqACAAQAAAABAAAB7KADAAQAAAABAAAAqgAAAADpmJhWAAAfV0lEQVR4Ae1dXcxm1VXm429mAOn8UIq0CmmxEmCIYFXiHx9e9MJ4oxfWeGGoafo1MRrjjV4YAeOdF3plpNE7NbZ3JsYLbxhuTBVEm+KkUlJtaidAmelAB2YYyozPN6ssNmvvtc4+7znv+X1OvnzZZ++118+z937Oevc55313zr51+SoeRIAIEAEiME8Erp6n2/SaCBABIkAE9hEgiXMeEAEiQARmjABJfMaDR9eJABEgAjuXL3NPnNOACBABIjBXBJiJz3Xk6DcRIAJEAAiQxDkNiAARIAIzRoAkPuPBo+tEgAgQAZI45wARIAJEYMYIkMRnPHh0nQgQASJAEuccIAJEgAjMGAGS+IwHj64TASJABEjinANEgAgQgRkjQBKf8eDRdSJABIgASZxzgAgQASIwYwRI4jMePLpOBIgAESCJcw4QASJABGaMAEl8xoNH14kAESACJHHOASJABIjAjBEgic948Og6ESACRIAkzjlABIgAEZgxAiTxGQ8eXScCRIAIkMQ5B4gAESACM0aAJD7jwaPrRIAIEAGSOOcAESACRGDGCJDEZzx4dJ0IEAEiQBLnHCACRIAIzBgBkviMB4+uEwEiQARI4pwDRIAIEIEZI0ASn/Hg0XUiQASIAEmcc4AIEAEiMGMESOIzHjy6TgSIABEgiXMOEAEiQARmjABJfMaDR9eJABEgAiRxzgEiQASIwIwRIInPePDoOhEgAkTg2qlBcOLEid3dXfEKZXVPK7Vmg0JRYWpxA53sQgSIABEYEYGpkPjjjz/+9NNPpySbg/LYY49BLK+vqdm2/hofKEMEiAAR6B2BncuXL/eutFKhUDb+N9K3UYis/OGHH24kdGh+4okn4guD0YxTXCrwHyZw5K2sIQJEgAhMCoERSHwzbi2i5uXmMPHII48Uu7SqFEJvvFq00klhIkAEiECfCCATH/IQWuwxAOTLxv/eTUChMcFTIkAEiMBEEBg0E0d2HG9u3HLvscPHjwnFv/j3L6Dwk3/80JmTZ1CQ0yL7g8efeuopaULWjC2UohgqRf/Re47+2x99SU9FONAPgdSEyPM/ESACRGAKCAxH4jG9Chag7MPHjyouX//CiyBcqTn7lTPCvHf92sdzwhWSLZoAcUPhq/91WpVD1de/8LWPfupHUlv//Mv/pHaLBeTj3FcpIsNKIkAERkRgOBLf2dlJ49SkWJkU3AoBPU2FtQwZEQC/51SuYlKACWHq9GJgZPQ0tY4y0v9cPz49qTwLRIAIEIEpIDAOiYNeH/yTn+oYf8zjSNg/+qm7Opp47g//FSm8KsGmDVJ+PWWBCBABIjA6AuO8sQlmlMy3S/zgaDB1UUNbBi86g8qUwWGIDF5Em5VEgAiMiMBwJG4YEBvcOXUiucbeNP7jrwYU8LhseRvhmhwc1vGHXBt/2CI3GnAqW/Ba3/tDL6qZBSJABIjAxggMt50CF/Nt8eKmiu6TSKIdMzKI2LBtYxqOLmBtybI9YfVBkeVeikLBAhEgAtNBYNDX7pHMps//mc0KBQWsjT9Dox6V4z4nkvFUlScJ/TX0LW6Yu5r4GGE+Sai3LBABIkAERkRgUBLH6/UmVLCq9zhKTuUeO+PRciVxSd6NFTnVq4I+tVIUQyW8Mk3x4+1GmKdEgAgQgcEQGG07pf4BFSVfgKLPeqcAgXN1R6W4PVKfgKdqU7uo53ZKCg7LRIAITASB4W5sIuDNdiSQgIO7BS+QNbi1FXaQRy9J1aHHS+cbdW7mfKNaChABIkAEuiAwKImnjoJV6+kYWy7gX3kQBbvVpqO8ly/Kz37lvce6UQNJ3d0uZvGpS2k57Yh6PpqSgsMyESAC00FgUBI3VJjTcYALeByPshR5XGka3XVzHGXsokgTenVh8MArNhEBIkAExkXgmiG/D+TOO+9EtOntzTPPn8Zzh0fue+/7UmI4fvAXPvLa82fe/PZ5dDx277GDHzqEp7xxmvaCAMTSjfKf/fwjkExlgrLJwSGJa8+QKAW+sYkIEAEiYBAY9Mam2DbfZVi8FWm8TE9TdkaKnabeqZiWW+Xg6JWTOL8yRcFkgQgQgakhMOh2igRvNlXMLnYjQLI/LmKNDI4rhPcIY6OhoreVvShGBIgAERgGgREycQTWMRmHBvPVVEWwkKcX3wgtCksl0/AAHDYRASIwQQQGfdlH40cynr4+g9uPyMfxzk7983+NOThsQQZ7L5WZOCT1XfzUTy2zMGsEMN/SKaex8G6HQsHCTBEYJxMHWCYZV/hqtrDzfFm7m0LNhju04RKSXxXwYLj+YJBRy9PZIWC+t0f95ztcCgULAQLIAPQrQ2p+pT1Q1XvTaCSOSIo83rgHUs/gAlYjj3sK+1rexQQwHki+WBTjs0ErSXwD0CbbZYM1hVg2Xlb4uKYMrpj0xQ+qcOPCmCQOp4vogHb1V9k0sOJ2h7Y2Flrp7DEHL16oGr0VAbiBaz7KQKmyC8U8BEjiHjKzqweDY1lt7LYsK/zHUaOkyFHScSrPrY3+g83mYZUUVmTl8pdWdi/HOnGB7RGTyonSGBRQ6tGrFaryEO53uFcI7PAhY8i80WxbX7OsAoKayOQZ4RFDAzQudN6oYJ9a/kyXjqeBTnjSF+12dNJ0x6c55JJMyQ0sPCUCXRCoWVbpy4nG1ma7OkZJ99Nxnk7p7rdq+PEbbv2JQ7c8ePBW1Dx34RX8f+b8q//+5n5heQfmHKaUd81bXryMiAgMgIDsd883QxqfxIs7XErNDx7aZ2ccf/Wd5//y9Ekpy3/I7B25RwVQKeXPHNlvz+U/d+yezxy5T/oWBVCJvbbJJuPiOeDCbMMhp/xPBIhAdwQCHsd2ipdxT2QZjr+dIvClwwC2ffL2XRBuStAp/0L48x/ehUwqkGpAGfKQAdFrvdGA02fv+lXYUgEp5P4YgdFP4eFEZs/oUNABItAXAt6ywv5qcVu8WNmXM630TO7pFJMvazBpZg12Duhbu0hh79QJ2V3xND93/pXPfutE2gvD0xdLBk+neJvv3mU/9RBl3FAyNTwNEODTKQE482oqfnaXELw1hdbKZeV9EEd3HLI/Dn4IDA0P5sgkbpaWx7PA5RMvflHQCWSK8KUc7bF/KiNKvLEsmggqPRLHJIi3tnEViT8TNGoIvFphk5lpikBfA60KWdg2AiBT7xHDxvRrkctqzO0Uk+0G7Lx36oTODLMrovVeIc3ZkXGDr3NJyMB6Wh8TaCq5pTLAiVl+S3aplggsGAEsK3yEDfJoXCFmF/6YJG6I0mPnvXf3QwTcIgsHuBt5j8dhPd1An8JYxrk2PJyCkwHybCIC00Qg3s6e3bIa/+kUGWaTCOvY772fwVEPFg5ydu0ohXyfRDQU91XwqGL6bCLGMrhiG0NbOoUDODrOKnTX62WqCpo7vhEKbTj0QVqUFQdZJ+bDlraawhU17/WV1rSvaEYUqQnxPxUzaludbs+ERCco5f7vD/Dubo2rosdIpt0hIAMtVtCU7t4Wu0ObAigC8FO6o0n3mhr7Gq/SU69vajqVH6AsyOiiMBZRb0bEC0GhMxqGPh3+hSuxaPYKwMt4ViT9A88GWEA+72K6p5l1rirvbizCw+7gmNmgbqC+UnmQNcQe6gpUo0EBVir9EbF65dDcqLzomEKE7kUBrWzUD59V2BQEw15M5ABWogTrOPLuaQ1UGc/lNEYpVVvsjkqxAslcQJXnTVqTOlksq6QpqPJir6DSgwL603gDDdJk/NFT41hgrtHEMALfH8JhjKVWzKQBgaYUDIZVTOMCmFoIXf7jNObuVFvO42mrGcvU+foylKQ6tVyvPJhDaPI8MfCq3aAAlwKFaggyXlCB8nh1FTsKRPW2YueLJlDZKpw4CoVICvWei2+xcvjphQBz6FtsTXUWBVAZdJchgEAQSwy75xjspr4JYpX/Ayha6fQAEUzUmcCcyoxbGIfE86FVEkehnoWDYahvUipHwfRqNSeKA+nNfl0exV5pZY6VOumtH8+odgwKnk5xKZjQgU5pgleecq9v20A8/XB+ABM6anCjrecKkSoxhQD5YIakE9hDIOiOKMSNwLrKGIflNFAeDFZRlVYGzqTxqrxXCMYo7RKYS8VGLI9D4sX5FHC35Neaaxe7e5Xoqx1jE0UNHcfGmyjx1E+Ntl0GnsVidMXKYHUV5esrvajrNTRKptCl5caO9QIBPrAYjFeNCQ+igEoCtSmpBWJeU+pMjUwKuJQ365XrSWsCKNJ40y7FcrBSUvnAXCo2YnmEp1O8uwHpTUUde9AucnO8nCnvcOIZEhSw8ZJnzdpFC5CBZNoRZS/TL1qHKtzTUIVTK+SzENh2d9i74eMNXD0s8K27ktjctvXDuoePOBa3xs6jdQCIGn1QAbnvLaf5ZJN6OIxDu6QFrx4yqea0y5DlwL0h3ehuawQSr3da6Dt90Fv7gs1jHkdr8ZlFaBMqV1VxoeOajJU3toKSWjkQCGMRIqeQAwmLtybhEiY3jtw3T7lo1kwEJqA/7y41nhJPXuthBYeeegXoLzrvyaf1lSauwHMi7ajlxktIjYkuIagnvReCMfVsBQPRCJSns6/6wIGaadaXG/3o0bU3TKF+Kkgend7tzMsejyN/z4VNDa4QlQhiUDcGx5sQlToDD4Gk8SrANhdG30A+d88TziXFK08eEYHljedBmGiCqlQ+vkhAvuhSbAJdjFeB/56JuIuJAhEF8nkIcC8OodiaGi0KxJVpdzjsCefeynihvtjFk09HOSgHUBiHAyVFx6TSKAnMBfqHbBo0E6/PK7082kBfzLUhg283NJL5af6WZi4jNUgovNd8vS7d64GV96a4KA9SCWMda6YojEpvmRkNwan3ubhoUfS0SsaxhIwqCQcrzfMqSACLXaAKVgwUMNqvCRMFPAlMtA1B4kIICCQ9cqNFBCq7G4hUleetV+/NGVW41QK8ipezF+ZWveqifLiXfTCfzOpFvoz3a8wXzCIY1HvsnIcKYbOdjZriDkzeV6zkDuASYr6UHAOPo9/RLS6w/JWQ3G3UBPySywdrBk2IK++SV+obPUY4wAROmhGXvoE/Rjk0ePqBXvpaiulYP1gwURwIKJT6YghozU14krEJL4pcv4kxPQVK4O60plUZ3QOoVRVk4JWepoXcWw9V9AqaUp39lsVzjJEXgpirwaFfx7prG47EzRTXXNvQJUICs9cHhqT7s+//CYhW3XNDcgnBl5Kn35sIMVy98REpl9+sBjMpnkyBWo8UsDaGXx4Y1oBnO/rjaRZwWnGKh2dsAq1m3qoeE3gQadAEbV4URr/azQtwsguDQ2FldxjCUZy39d4i3jyEvmrgBo6+tM1Fz0DbKWYeK4MDpnzroz4N745ybkv9QRP8TE0Up28qMEAZq8iA2cUotFV299YeMOnRn0pnRCxw3vvc0Eo/hGECR9teqXzH7qkqr1z/yaaowRvZonB95RzJFFCMNZnrgc0lByLx3LDWmK0Pw5sqtr2CsZj6Yyh+9HkJRqhMmopwgXDzoyjZqhKwYPsen1SGXwAjUiSQTFHy5kYjw3ohGP2pLVP2NBgx77RVd4/xZV6piWAmBE3afZTCTBkcWA20nZJO8TQNH2W0AqPYSzGt8FY3zevXlVHS/RQrDZOs1XqDUVla3q5rK69gGkeAgNjCQENMmGuA5QpDRZeKla3iVWGEk85era8sAHxc3iqFpy+2PwmcaQDM0RSH4F0D4l4DtM6XwQHOECTeuKLym5P1wyY/jlwv31GyZqZ2NFHs3jYBh5+gnkbki7a8SvgAPmrUCQGRUUIfgM09n0evFyhGd6NHB8B3xaDSLawul70eXa1UhYndePmpVDWK2AjbKfLL9H1Fq2myKsxrtGmDQr/ebuCAdGnFg6DaGrbdwJm2mRRWO9YzNlta+V/v2LhrT7lMC/We10huSW2N6Q1k4K04LP+LGrY0DYq2GisxeUDfeFph3FnU6GejwCQy8dRLPKwiP1efVnplPEBSbEK92c4uikklLAat6RY5xDBB+xryIiF6KYxktY2m4R7oOwinYxMcwKTHUvT89PRDHpla288TnjatD/hCZVjoFwHMARwB8l5TccL361usDW6LgHiip3Gv6bcOQeKNKKQPeqOMX3Iw1Olp8PgXyXglicOWse7Z6rceE6iYlYDpvDUgPB670citOnH1hltjl9wiPIce+NmqL+Rxgemdx3P3+q3xhgNWFMx+LU5fG0iwCItM0XRfZeBY4FhxWQ3sxsDmRthOaYzwye+cbJSBANLtlH9Nl71TJ0xN8XTgLfWiD2llkK1g2RRXjnbH9PUEQDfyyRH/5YAwjo1pCB3RHVk5HMahPsQFuLfVDwqx9Xm1AmEc8/JZpp83CTFh5hXOXLwdgsTjuZhviYCa80oDKATive8aJUjDcyXGNGSM6a2eXlm5u56JOPP1WqETxB2PgmexsR4rE0c9m2OFe4u80dZkBQJsgTzA2eBAxynH64XsXaTrr/STjXqyjg1B4ib4mkQb3GrIVJWAVfdOncjJVwW0ABlIeiwM/fi5ThX2CsZbb+563TeoD6Z7wIBgUs+W7px4Ar3UXyHzfTYH+wQhwFaPJO59cu9xmDwTlaB5V9bK7pMV84a4x8GdbOxTc2wIEseKShcVcuSUWD06Fh5XKkcXoW8wb7CLYvCFJOT3rlC5GoVO/AV2UyXGVhpIKtZj+Qpau57CDUgh4HfPSpd6+A+LYHMPq460mPrmUcYA1y3DYl6wnodpFHMse/F6sQw8CT03Flk/0I1NzPh0NiO9ffLQ/ms1ytFFcIVnPbZFFzxg/sChY3cfOPKxaw/fePW1r79z8aVLb5586/SzF1599twrl676/led7FP5+79fpWhOK+GV3Bc17pl1q/K9FwxcqX7AiKN+CdVLplZMGSuwePFA0h3oD6Iw+jc77YUXGsGEQI17QbD1t3MbnanxZDAZDH09OIN5tUJDQ2TigNUsdbDq3qn9BDkg6Hgw7jjwA79364/96Yd++nNHju/e8JEfuv6mo9cevPPAzQ8duu03D9/7F7c9/Ae3PvCxgx+IlXit8Aq+5dl6L6zhGU3rAZdBLG0t8mkqkJbjZRa3qh4vd449qVSuVvJCoB/Kg9b6kQqUwJ96PcF4wdUaPeB6HDWSOVCj1NTnNAE4o3i+MKMDkThQM0MOHjc7FfXIHr/h2O8cu//Xb/74zddc7/X6lZvv+v0PPvAzN93mCcT18M1cYIz/cffurYE5kAKOehMeL6A+pjA14TnT1hNVWFmAfvBaLuzVi6Tnba5HavAuUhHPGJ8c1cAucM7l1R9YVx9iSe0yhUI9NddLTiGu2fkw0HYKcMEkRkJXXC2tULvluoOfPnz3z9/w4cZeDx649fIHrvrGxXP/d/Fco3AsgFkYLMK472atsIjDgwtLHa2pZpx6jCz1++reVSg1nvJUrZTRMa+UGpAsyCsHBzWeP602rOEkCE74UfzvZRaZcCQKVEqkMOo5Lx2LfB2EjF5QiEM7BrFADPI5pGJ6Uv8litglDTkWY+vmCGzw8NPGXYKnpvA9U/i9NPzHXxzMbxy72/zQWnz627fcHysUo2Ldk8RE3CxqIYVcLeobFQZwQSFajQbPVm69psboj52BQkAkR6Mbxm2c1vhTKQMfcv39moAnRROobESpMorcRKAZTZ4/ab1nurJ7qkrLgVdqrot+NZQWAqPe6Kfd25YDc21VbUl+uEwcg+otb9Co3EjUFzXNVoZOCBQePnR7etpY/sUb7/i71144/faFoqSaRqtYL5oeJS0CXJiUkpflzqPe4Anh+uQ6VxjXwBaOQL/np1ELJ01Nv6cDjFQQAiAKhqw+UuipFx5RstFPCDTKjOj/MkwPtycueBVH1Lwij1Mk1/m3wkID7mf+6IHDraD/4HWH7rqucIcT+mElN53bLfrcyoeNhQNKAp8aSt1fLttc/EhJOuoHwQURbYySdgzoVWU6FhpDQIAd3QDIQfbX0f/eu8dTotXWWe++rUTh0CSez++cNAX6J2/fzZuu3tk5uNP60wM2Vc1wQjP0m0o5zX/dbdyJmCOmbuc3/bD4A3ntqAUIe4uwmFm31a+GUICttgzu+Zaq1fJm+lvRZaWJLjw+LwaXYdUhyAttRzzXwJpGBIYmccxRHKlbOWlqa87jb1x6W1vrC29dfscIewxuxHBauW7zjn3VxMvAJOMwWs8gcWi5ZomoXr8igBEHV8aBqHBagIc40hqvvJl+XJ7FN09tWg9P6kOAJDZAK50XK+JJq4tK6t5YZbiNo2jdqy8Ks3JjBFpntRtb0o6YpmlqHH/3rPkd5LPfu4gXL3XrXHUGhW9ePPfqO+dTAdzDTE9N2XwzYv26NXrk1MvivfqiEnCB96Q2qDZfKvBZjmI2DXlYh4DYakU00uVd9fsaiiZEzBiSyrb/1VbRUL2JAEMoAeHCkPfcCwTQHf83dt7TDIWitlG/+FCcBpWOeQhUdm8bO+RbTfJ6/XB4ez4X3RjYXNGHoHIH0zdo3lIT9gHSRA9704EhsHb6JSefPnr3bx1teOAk1fa3r7/wZ6/8p9akdzK1Mi3snXrfa/2j4JP6070MqHHoRNRCd82iAcq1oMq1UGMlvain8rjep3rE0ACxbMmE+o8YNS4tpIHPq4zrX/ESu4C1M4uBGIfEzagjNY6T672EWHFv83eP3v9zNzY/J44BePb8y39++stfvXBWBiPYCtfR+sSLX9Qykhe4qqcsbAmBShLfknWq7YhAcfi4djqiWt996D1x8cxkH41f6o1NFQ3pG29996/PfvWZCy9rjVf42sWzf/PafyuDQyzVU+xlviylKMNKIkAEFAFmOQrFWIVxMnFEa67erZJxdL/n0NFfuvmOT974w4evPpBjd2nn8j++/r//8N3/+fKb7/30Wts0HGr5eTDHdhs1ZjKoCbOdovUsTAcBb+y4dgYboxFubEpsSMZli1BO9XsNvcjxEEv6XSsnz5/B31M3feuhg7cdP3D0voPHrt+55tyli9/83rn/uPDqv7zx0pfeeMlT5dXvnTqRNuHzYHrKMhEgAgaB/CFXEeDaMUBt9XQ0EjfPqICg9QtgiwFf+dV5+7Ntz5x7BX9F+bwy3kuB9fQige78nJhjyJqVI6CJF+5kannlmIwe/mgkjsjB4+mVXN53N69QKkCN++Yq6RWgwbt9mn/rLFMJD0bWrxmBdMEGODABCsDpvWmcG5sSBnZUcKQhgcfxcMiW7i6aB8DFLmztZV9rDq84C9NxYZkI1CPABKgeq14kR7uxqd6bZ8a1Hg90axn8a/Y6tKlVQd7j13dEi991BQbHLDRXl1ZWKNwWAe/mGG9stkVy2/LeSKldrB0mQIrGMIXxSRxxYtSLLwvEEICRZZvbbJLg5SDZeylydKwT3A3iiGXY2jsCHjWQxHuHuqNCb6RELZdPR3g36z7mdop6DBJv9REM9I1HEvH9J6Bvw+DQiRpsrAdfhah2TQE+kMENJjwlApUIcPlUAtW72CQycYlKPoXVpOTxa/oGo73kbU/TpKfcQlEoRikUt9SY1o0yFrFRb6TA4BivuC9bt4TAhEhcI4x3V2re2VFVKOz5JI5ph+/owX8caReWiQAR8BDAk4XycKGuGi14XVi/VQSmSOIScEDljV9ipZCZL8/SehSQO0jun1ayTASIABGYFwLXTJbI5PJe/O7NZ89/++qdy/luuIEejw8+9vIzplJOsff96KOPFptYSQSIABGYEQLTzcQVxA1SciTgeI+/+FQirg3cv1NsWSACRGDuCMyAxAXigMohgI1yPP0tr/MUuRsypO+5T1b6TwSIQI7AbEgcruN2ysbf2MAnjvOxZw0RIAILQGBOJC5wxyl5PiRIwPn0dw4La4gAEVgGApN42acVlCBxfFUx9rUbewl9k8EbgaIAESAC80Vgfpl4ijUIHafpr9CCuFEjFC9lnPIgAkSACCwVgXmT+FJHhXERASJABCoRmN92SmVgFCMCRIAIrAEBkvgaRpkxEgEisFgESOKLHVoGRgSIwBoQIImvYZQZIxEgAotFgCS+2KFlYESACKwBAZL4GkaZMRIBIrBYBEjiix1aBkYEiMAaECCJr2GUGSMRIAKLRYAkvtihZWBEgAisAQGS+BpGmTESASKwWARI4osdWgZGBIjAGhAgia9hlBkjESACi0WAJL7YoWVgRIAIrAEBkvgaRpkxEgEisFgESOKLHVoGRgSIwBoQIImvYZQZIxEgAotFgCS+2KFlYESACKwBAZL4GkaZMRIBIrBYBEjiix1aBkYEiMAaECCJr2GUGSMRIAKLRYAkvtihZWBEgAisAQGS+BpGmTESASKwWARI4osdWgZGBIjAGhAgia9hlBkjESACi0WAJL7YoWVgRIAIrAEBkvgaRpkxEgEisFgESOKLHVoGRgSIwBoQIImvYZQZIxEgAotFgCS+2KFlYESACKwBAZL4GkaZMRIBIrBYBEjiix1aBkYEiMAaELj2wltvryFOxkgEiAARWCQCzMQXOawMiggQgbUgQBJfy0gzTiJABBaJAEl8kcPKoIgAEVgLAiTxtYw04yQCRGCRCJDEFzmsDIoIEIG1IEASX8tIM04iQAQWiQBJfJHDyqCIABFYCwIk8bWMNOMkAkRgkQiQxBc5rAyKCBCBtSBAEl/LSDNOIkAEFokASXyRw8qgiAARWAsCJPG1jDTjJAJEYJEIkMQXOawMiggQgbUg8P/XNWZQdm646gAAAABJRU5ErkJggg==;" parent="97" vertex="1">
                    <mxGeometry y="4.996524040835993" width="60.17" height="20.79" as="geometry"/>
                </mxCell>
                <mxCell id="92" value="" style="rounded=0;whiteSpace=wrap;html=1;labelBackgroundColor=default;fontFamily=Tahoma;fontSize=6;fillColor=none;" parent="97" vertex="1">
                    <mxGeometry x="1.17" y="3" width="109.83" height="60" as="geometry"/>
                </mxCell>
                <mxCell id="93" value="" style="sketch=0;outlineConnect=0;fontColor=#232F3E;gradientColor=none;fillColor=#cd2056;strokeColor=none;dashed=0;verticalLabelPosition=bottom;verticalAlign=top;align=center;html=1;fontSize=12;fontStyle=0;aspect=fixed;pointerEvents=1;shape=mxgraph.aws4.instance2;labelBackgroundColor=default;fontFamily=Tahoma;" parent="97" vertex="1">
                    <mxGeometry x="17.079999999999984" y="25.786524040835957" width="34" height="34" as="geometry"/>
                </mxCell>
                <mxCell id="95" value="&lt;meta charset=&quot;utf-8&quot;&gt;&lt;span style=&quot;color: rgb(35, 47, 62); font-family: Tahoma; font-size: 12px; font-style: normal; font-variant-ligatures: normal; font-variant-caps: normal; font-weight: 400; letter-spacing: normal; orphans: 2; text-align: center; text-indent: 0px; text-transform: none; widows: 2; word-spacing: 0px; -webkit-text-stroke-width: 0px; background-color: rgb(255, 255, 255); text-decoration-thickness: initial; text-decoration-style: initial; text-decoration-color: initial; float: none; display: inline !important;&quot;&gt;5&lt;/span&gt;" style="text;whiteSpace=wrap;html=1;fontSize=6;fontFamily=Tahoma;" parent="97" vertex="1">
                    <mxGeometry x="56.17454236260778" width="35" height="36" as="geometry"/>
                </mxCell>
                <mxCell id="96" value="&lt;span style=&quot;color: rgb(35, 47, 62); font-family: Tahoma; font-size: 12px; font-style: normal; font-variant-ligatures: normal; font-variant-caps: normal; font-weight: 400; letter-spacing: normal; orphans: 2; text-align: center; text-indent: 0px; text-transform: none; widows: 2; word-spacing: 0px; -webkit-text-stroke-width: 0px; background-color: rgb(255, 255, 255); text-decoration-thickness: initial; text-decoration-style: initial; text-decoration-color: initial; float: none; display: inline !important;&quot;&gt;8GB&lt;/span&gt;" style="text;whiteSpace=wrap;html=1;fontSize=6;fontFamily=Tahoma;" parent="97" vertex="1">
                    <mxGeometry x="21.17454236260778" y="29" width="35" height="36" as="geometry"/>
                </mxCell>
                <mxCell id="91" value="" style="aspect=fixed;html=1;points=[];align=center;image;fontSize=12;image=img/lib/azure2/general/SSD.svg;labelBackgroundColor=default;fontFamily=Tahoma;" parent="97" vertex="1">
                    <mxGeometry x="78.17000000000002" y="25.786524040835957" width="27.5" height="25" as="geometry"/>
                </mxCell>
                <mxCell id="98" value="&lt;span style=&quot;color: rgb(35, 47, 62); font-family: Tahoma; font-style: normal; font-variant-ligatures: normal; font-variant-caps: normal; font-weight: 400; letter-spacing: normal; orphans: 2; text-align: center; text-indent: 0px; text-transform: none; widows: 2; word-spacing: 0px; -webkit-text-stroke-width: 0px; background-color: rgb(255, 255, 255); text-decoration-thickness: initial; text-decoration-style: initial; text-decoration-color: initial; float: none; display: inline !important;&quot;&gt;&lt;font style=&quot;font-size: 5px;&quot;&gt;MicroSDxC 1T&lt;/font&gt;&lt;/span&gt;" style="text;whiteSpace=wrap;html=1;fontSize=6;fontFamily=Tahoma;" parent="97" vertex="1">
                    <mxGeometry x="74.16879523617104" y="9.9962293462645" width="50" height="36" as="geometry"/>
                </mxCell>
                <mxCell id="115" value="&lt;span style=&quot;color: rgb(35, 47, 62); font-family: Tahoma; font-style: normal; font-variant-ligatures: normal; font-variant-caps: normal; font-weight: 400; letter-spacing: normal; orphans: 2; text-align: center; text-indent: 0px; text-transform: none; widows: 2; word-spacing: 0px; -webkit-text-stroke-width: 0px; text-decoration-thickness: initial; text-decoration-style: initial; text-decoration-color: initial; float: none; display: inline !important;&quot;&gt;&lt;font style=&quot;font-size: 5px;&quot;&gt;$159.99&amp;nbsp; &amp;nbsp; &amp;nbsp; &amp;nbsp; &amp;nbsp; &amp;nbsp; &amp;nbsp; &amp;nbsp; &amp;nbsp; &amp;nbsp; &amp;nbsp; &amp;nbsp; &amp;nbsp;139.99&lt;/font&gt;&lt;/span&gt;" style="text;whiteSpace=wrap;html=1;fontSize=6;fontFamily=Tahoma;" parent="97" vertex="1">
                    <mxGeometry x="26" y="-3.3034759591639613" width="114.92" height="21" as="geometry"/>
                </mxCell>
                <mxCell id="99" value="" style="sketch=0;outlineConnect=0;fontColor=#232F3E;gradientColor=none;fillColor=#232F3D;strokeColor=none;dashed=0;verticalLabelPosition=bottom;verticalAlign=top;align=center;html=1;fontSize=12;fontStyle=0;aspect=fixed;pointerEvents=1;shape=mxgraph.aws4.internet_alt22;" parent="1" vertex="1">
                    <mxGeometry x="413.5" y="733.8" width="78" height="78" as="geometry"/>
                </mxCell>
                <mxCell id="100" value="Internet Service Provider" style="text;html=1;align=center;verticalAlign=middle;resizable=0;points=[];autosize=1;strokeColor=none;fillColor=none;labelBackgroundColor=default;fontSize=7;" parent="1" vertex="1">
                    <mxGeometry x="402" y="773.3" width="95" height="20" as="geometry"/>
                </mxCell>
                <mxCell id="103" style="edgeStyle=none;html=1;fontFamily=Tahoma;fontSize=5;startArrow=block;startFill=1;" parent="1" source="101" target="99" edge="1">
                    <mxGeometry relative="1" as="geometry"/>
                </mxCell>
                <mxCell id="101" value="" style="sketch=0;aspect=fixed;pointerEvents=1;shadow=0;dashed=0;html=1;strokeColor=none;labelPosition=center;verticalLabelPosition=bottom;verticalAlign=top;align=center;fillColor=#00188D;shape=mxgraph.mscae.enterprise.router;labelBackgroundColor=default;fontFamily=Tahoma;fontSize=5;" parent="1" vertex="1">
                    <mxGeometry x="320" y="754.3" width="50" height="39" as="geometry"/>
                </mxCell>
                <mxCell id="102" style="edgeStyle=none;html=1;entryX=0.13;entryY=0.5;entryDx=0;entryDy=0;entryPerimeter=0;fontFamily=Tahoma;fontSize=5;startArrow=block;startFill=1;" parent="1" source="92" target="101" edge="1">
                    <mxGeometry relative="1" as="geometry"/>
                </mxCell>
                <mxCell id="104" value="" style="aspect=fixed;perimeter=ellipsePerimeter;html=1;align=center;shadow=0;dashed=0;spacingTop=3;image;image=img/lib/active_directory/internet_globe.svg;" parent="1" vertex="1">
                    <mxGeometry x="589.25" y="747.3" width="50" height="50" as="geometry"/>
                </mxCell>
                <mxCell id="105" value="" style="edgeStyle=orthogonalEdgeStyle;rounded=0;html=1;fontSize=7;fontColor=#000000;startArrow=classic;startFill=1;endArrow=classic;endFill=1;" parent="1" target="104" edge="1">
                    <mxGeometry x="-0.4835" y="-16" relative="1" as="geometry">
                        <mxPoint x="491.25" y="772.3499999999999" as="sourcePoint"/>
                        <mxPoint as="offset"/>
                    </mxGeometry>
                </mxCell>
                <mxCell id="106" value="&lt;span style=&quot;color: rgb(0, 0, 0); font-family: Helvetica; font-size: 12px; font-style: normal; font-variant-ligatures: normal; font-variant-caps: normal; font-weight: 400; letter-spacing: normal; orphans: 2; text-indent: 0px; text-transform: none; widows: 2; word-spacing: 0px; -webkit-text-stroke-width: 0px; text-decoration-thickness: initial; text-decoration-style: initial; text-decoration-color: initial; float: none; display: inline !important;&quot;&gt;Global Internet&lt;/span&gt;" style="text;whiteSpace=wrap;html=1;fontSize=8;fontFamily=Tahoma;fontColor=default;align=center;labelBackgroundColor=none;" parent="1" vertex="1">
                    <mxGeometry x="581.7469143194902" y="710.3038246877569" width="69" height="36" as="geometry"/>
                </mxCell>
                <mxCell id="107" value="&lt;span style=&quot;font-size: 7px; font-style: normal; font-variant-ligatures: normal; font-variant-caps: normal; font-weight: 400; letter-spacing: normal; orphans: 2; text-align: center; text-indent: 0px; text-transform: none; widows: 2; word-spacing: 0px; -webkit-text-stroke-width: 0px; text-decoration-thickness: initial; text-decoration-style: initial; text-decoration-color: initial; float: none; display: inline !important;&quot;&gt;&lt;span style=&quot;font-family: Helvetica; background-color: rgb(255, 255, 255);&quot;&gt;egress:&lt;/span&gt;&lt;br&gt;&lt;span style=&quot;background-color: rgb(255, 255, 255);&quot;&gt;&lt;font style=&quot;font-size: 7px;&quot; face=&quot;Helvetica&quot;&gt;$&amp;nbsp;&lt;span style=&quot;&quot;&gt;0.0000930069&lt;/span&gt;&amp;nbsp;/ GB&lt;/font&gt;&lt;/span&gt;&lt;br&gt;&lt;span style=&quot;font-family: Tahoma; background-color: rgb(255, 255, 255); color: rgb(0, 0, 0);&quot;&gt;1,182,600 GB per month&lt;/span&gt;&lt;br&gt;&lt;/span&gt;" style="text;whiteSpace=wrap;html=1;fontSize=9;fontFamily=Tahoma;fontColor=default;" parent="1" vertex="1">
                    <mxGeometry x="504.25" y="725.3" width="94" height="33" as="geometry"/>
                </mxCell>
                <mxCell id="109" style="edgeStyle=none;html=1;fontFamily=Helvetica;fontSize=7;fontColor=#000000;startArrow=classic;startFill=1;" parent="1" source="108" target="92" edge="1">
                    <mxGeometry relative="1" as="geometry"/>
                </mxCell>
                <mxCell id="108" value="Electric Company&lt;br&gt;$0.99 / kWh" style="verticalLabelPosition=bottom;html=1;verticalAlign=top;align=center;strokeColor=none;fillColor=#00BEF2;shape=mxgraph.azure.automation;pointerEvents=1;labelBackgroundColor=#FFFFFF;fontFamily=Helvetica;fontSize=7;fontColor=#000000;" parent="1" vertex="1">
                    <mxGeometry x="201.08" y="858.3" width="50" height="45" as="geometry"/>
                </mxCell>
                <mxCell id="111" value="Psuedo Static IP&lt;br&gt;&amp;nbsp;187.168.X.X" style="text;html=1;align=center;verticalAlign=middle;resizable=0;points=[];autosize=1;strokeColor=none;fillColor=none;fontSize=7;fontFamily=Helvetica;fontColor=#000000;" parent="1" vertex="1">
                    <mxGeometry x="331" y="725.3" width="70" height="29" as="geometry"/>
                </mxCell>
                <mxCell id="112" value="&lt;span style=&quot;font-size: 7px; font-style: normal; font-variant-ligatures: normal; font-variant-caps: normal; font-weight: 400; letter-spacing: normal; orphans: 2; text-align: center; text-indent: 0px; text-transform: none; widows: 2; word-spacing: 0px; -webkit-text-stroke-width: 0px; text-decoration-thickness: initial; text-decoration-style: initial; text-decoration-color: initial; float: none; display: inline !important;&quot;&gt;&lt;span style=&quot;&quot;&gt;&lt;font style=&quot;font-size: 7px;&quot; face=&quot;Helvetica&quot;&gt;$ 109&lt;span style=&quot;&quot;&gt;.99 / mo&lt;/span&gt;&lt;/font&gt;&lt;/span&gt;&lt;br&gt;&lt;span style=&quot;font-family: Tahoma; color: rgb(0, 0, 0);&quot;&gt;900Mbs down&lt;br&gt;&lt;/span&gt;450Mbs up&lt;br&gt;&lt;/span&gt;" style="text;whiteSpace=wrap;html=1;fontSize=9;fontFamily=Tahoma;fontColor=default;labelBackgroundColor=none;" parent="1" vertex="1">
                    <mxGeometry x="410.25" y="781.3" width="94" height="33" as="geometry"/>
                </mxCell>
                <mxCell id="114" style="edgeStyle=orthogonalEdgeStyle;html=1;entryX=0.447;entryY=0.083;entryDx=0;entryDy=0;entryPerimeter=0;fontFamily=Helvetica;fontSize=7;fontColor=#000000;startArrow=none;startFill=0;rounded=0;dashed=1;dashPattern=8 8;" parent="1" source="113" target="111" edge="1">
                    <mxGeometry relative="1" as="geometry"/>
                </mxCell>
                <mxCell id="113" value="DNS" style="shape=image;verticalLabelPosition=bottom;labelBackgroundColor=default;verticalAlign=top;aspect=fixed;imageAspect=0;image=data:image/png,iVBORw0KGgoAAAANSUhEUgAAAOEAAADhCAMAAAAJbSJIAAAAkFBMVEX9UAD////9QgD9SgD9TQD9PQD9RQD9QAD/49z+187+vKv//vz/7Of/+vj9bD7+0MT+z8P9gV3/3tX+lnr+ybz9XSP/9vL+oYn+hWL+nIL9dk3+wbP9Yiz9VQ3+qpT9iGn+sZ3+knT+sJz+uKb9ZjT9e1T9Whr/5+H+q5X+pY39b0L+k3b9c0n+xrf9YCn+jW3ZYkwSAAAL80lEQVR4nOWdV2PiOhCFZTUTegudEBJCNnuX3f//765MddHIagbbnKd9SVZfjtVGMxIKCtek0Vu+T7ezRXe3X68RWu9X3cVsO31f9hqT4v97VOQv/x6/bXaYhZhzQiil6CLxb0I4xyHDu82v8XeRjSiKsH2Yd0OBRm5YclHCxd+gOz+0C2pJEYTt5oayfLYUJ6ObZhGU3gn7IyToDOBuEpRo1PfdIK+EneUgxEbeZb3E4eDQ8dkoj4TjAcN25qWsxGww9tcsX4TDEfeCd4Hko6GnlvkhbK6YP7wzJFs1vbTNA2F7jrlL34NEOZ57GFydCRsz7/bdRNim8WDC4VeBfCfGhWOHdCJsLArmOzM6+ehA2B7cge/EOHDoj9aEndGd+E6MI+tVgC3hp8fZT4sRf96VcPiK78oXCb/aDTk2hK0tK2L+yxNl29Z9CPvkvh/oTYRY7DyMCVsz9iC+SGxmbKMp4cvDDDyJkJdiCecP6YFxUTYvkHCy4g/mi8RXRhE6E8Je+GgDT6JhrxjCn0cOMUmxnyIIv+4/ycPCX94JJ6+PHUPTInvdzqhJ2ChkF+8iyjX3VHqEvYdPEllRpjfeaBE2yzPGxMW0QlU6hB/lBBSI734ISzRLpKUza+QTTssLKBCn7oSlBtRBzCMs8Sd6Uu6HmkNY2kHmprzhRk1Y0mkiqZxJQ0nYqwKgQFRO/SrCRjUABaJqAacgnJRuLQqJcsUyXEH4WhVAgfhqQ/hVru2SWgTeL4KEP2Xa8OYrBKdFiLAiw+hN4IAKEE7CR7fYWBgYbQDCVXVGmYvozoRwXoa4qKm4PFQsJXypWic8iUkD/jLCllPi1uNEiezYRkY4q9JMGBeZ6RH2q/mNRmKS88UsYauqDkaSfKdZwm2lCbf5hMPqfqORWCadIUNYoR2FTNldRprws1oL7qwyeTcpwk7VAQViR0k4qvIwcxIZqQjb1R5mTmJtBeGg+hYKEwcwYWWCa2olQ28JwkUdLBQmLiDCik/2NyWm/ThhpaJrKiUibzHCmvTCSPGeGCOs7LYwK7KREdZiLrwoNifeCOf1sVCYOJUQVn9FGhfOEjarGECExZsZwgrGgFWiqzRhbWb7i66z/oWwBtumpK6bqAthvXphJJ4kHNdrJI2ExwnCWmwMk7psE0+EnbqNM5FYJ0a4rN9HKj7TQ4zQ60ca3XQRpoTtrlmg0W+yraM+f6YnQp9n2nw/Xb6k1X8fMOPhmrLVW78x7H9YFhuHN8K+x4+UQEU7nTfDgpTw93WrPrGqRsL9K6G/6R5zxBdQQeuka2IjSwSv23vzNp4m/SMh8rUmZb1PTggCc7AG+oiZ7JGdMSJFF0Jve18mJtnWJqRrsEiwq9vMcJn+0dba2IfjPjgi9LVxOh/ezbH0tPn0oWqOaamo7lHmm4PjFioi3HjqhuG5A36R7CneRW96f00mK8A3DiQdwzURoadeyC+pZROWjMkmvjWtYZv8k/3s0HhSoydCX90wvI6hc1cTpRZajIjR7xGEBz/dkL9dWyJM/A2aqPG/yS0Mgn+mnyk/HAk9BdlwbACdc3l+UqRf+YiAhbqd+KZo+SEIu176If8Va0onpA4mQhYGH6aEtHsk9LMo5Yk5cKowMbedkIXmHkZLUxR8eyHkH4m2CBOBZMggN2IiyYk5y7gfovBbEPoJYPBUY344XAWRYyJoYWC+qsFjQWhuvUQ8XZrTsjYRttDicEwM8MjPioZkmvPGQ/CajncVIgPX7RaHY2JVg4Kdh6GUZ6/HaeFb2DkjRVPJf9APfVusTMSHhLycyGQtPJoI3g2oMBG20CrUggM08bBmk95w1OKKShawsel8n5vsjqjZBDXcJwtKpU36UJj4CZno2UIUNlDP/SvFQAEgp3tTE31biHAPLZ0nCwrV3bzz8AA1GDARttAyUYQvkXLk1hJkYbTbgU2UjuCwhbanf/wdTV2nQ9DCINhThYmy3gFbaJuuRabIOa0bZ2JGFzWx0sSsi2Cs1f4Al2zRzHHCp2uQIdqSZ2NmMf60YAv/2LaSztDCkRD+Do8IOX+AhIDCpcDlDJ4ukOP+N/czVH7ESTHw9sff1o2kXbRzAkSKSf0EoG8iBy+AcKk026G9C5+qxPgygmmbGBZgIRJ8a/sfRkoLL/OsrokcrOR1KhZcuxHSv2Drb5MQvCJIHD2H8GGHy1Dh5iDS2uQqlgSxsEQs3JrSI+s9FXvc+FpQy0TYQtctuouL8O1+iWCTjomJcGtCjnXza5exVDvWpDDxsjvlRVm4Ryv7H4bjhanIfb6JqXBrTH3HHfrKYU0DW5gJ3MMmHk4A6XDrTY5ZoWJNY78uheP2mRCscoeFJOHWq8aOFop1qfXeIjr1kEtyCppjoixWd9Jf163PzH5/CFv4kw0bAMGqSMJESbj1LFcLo/2h7R4fPj7ryFqlhIDXdc41u2KPbxungc+xJRai05E6REGhqeLgHOrk77axNvoHarDUQrWJ4Ipt73ziwJe28VLYwinwJ1ONJlhuoruFUbzULuYNp5MAFuaYKN85mZ8XZhQ2LM8t4BvS4KttYBNXVLr79ZHXyyZ2Z0/w1VqKPxg8rfdCaQTDg4XR2ZPVylZhoepoEDRxRyVRKB8WHs8PLc6AZXl1uRYqTWSSSKKPnNDjGbBGBk9aITiQqnNx4fV1l2aiwZKIsbnEttMuF8PKQpWJLywT0feS1nvMxTA/Ho/XoCb1X84XD5v4O22iFwsR+7bKiQLjfrlZjvBGV5iYPFmTHNxYKLTLawNjKvn7FNjEPyRhIngMbqRzXptxbiLkoUaiKmzikCVShfzkS55zE43zS6F+qJN2BkecFiSW7uV+Mn363w62OcK2FqqihsLEW9alp8zzc46weZ63fD7UWzrAJn7dTPRk4SXP23xVI/1MNWcdOHrfYNfQj6/yiEuuvnm9hWxdqptLEIJH2f84P32n0BbTVNd6C/OOKDn5/dSdVuEk92BPjkVT3o5irjUzFgukTDPH+q3icEUNIiR8e/FVK3ire7KpXSN/E5m8Rvfv8z/QaW9ngRH3VioYq12zqT+k7O3azped2S8gcETjx2M1a6z+0C5dn7PZ58tweJjuzd/y4vhf86WR0rD/tvN5L0CshtS2DvhY8Gv51Djh6Vph+4pf4H+I1wEfal/LXf96/PrfqfAE92LU/26TJ7ifpv53DNX/nqgnuOur/ve1PcGde/W/N9Hb1QolkPzuyye4v7Qu1winsgye6x7hupgI3wVdFxMV93nXY5uoupO9HnOi8l79Omyi1G8jPMH7FvV/o+QJ3pmp+oyh8VZQ/d97eoI3u+r/7lqFH0nQfTvvCd4/rP8blk/wDmkl48Nmb8k+wXvA9X/T+Qne5a7Y6082b6v7KKu6mxSXV6gIJ15zP4oU5WA2oJKwOkFwuIQnh7AqAypcNZ9LGDSrgMjA62E0CM1yDh8jBhbiaBEGP2VHZOBEqEkYTMuNyMCrl7QJy42YD6hBWOYPNfcT1SMs73CTN8hoE5Z10siZJkwIxdRfvgUcVU/0hoRBo3RrVMpVSzVzwmDyWq7NFHlVLLatCMV+sUyBjRDeD9oTlmnW0JklLAiDHi5HZ6RYb4wxJwwmXgs+bMV3ul3QnDAIrF4H8yrKwHtcvRAGL+SxYyoh4PVUngiD1uyRAw6bgUW23giDoP8wGwkB79r0Shi0tg/pjZRtjQ20JAyC4ev9I+L4FbxRpQDCKO/mvp8qkb4wUSRh0BnZPZ1px8dG4DXKhREGQXtwJ0bCBuDzQYUSij3V4g6MhC3sOqAPQjHkWD7zejc+Z0Lh46ZARsI2mvvcAglFf5z6rVC+iHI8deh/HgmFmivvRhK2Am91NZIfQtEhR9zjDEkwHzl2v6t8EQqNB8wLJMFsAF7Xby6PhGIVcBjYXkBwFiU4HBysZ3eZvBJG6o8Qs3tIHRHO0Mhi96CWd0KhdnNDBaWJl1TQ0U3Tw9CZURGEkdqHeTe66CKXU7BhFnbnhyLoIhVFeNT3+G2zE+3HnBNCY7foiX8TwjkOGd5tfo2/i2xEoYQnTRq95ft0O1t0d/v1GqH1ftVdzLbT92WvYRQ1s9P/bd6k/Ti4NuoAAAAASUVORK5CYII=;" parent="1" vertex="1">
                    <mxGeometry x="428" y="641" width="34.8" height="34.8" as="geometry"/>
                </mxCell>
                <mxCell id="116" value="my.awesome.domain.com" style="text;html=1;strokeColor=none;fillColor=none;align=center;verticalAlign=middle;whiteSpace=wrap;rounded=0;labelBackgroundColor=none;fontFamily=Helvetica;fontSize=7;fontColor=#000000;" parent="1" vertex="1">
                    <mxGeometry x="352" y="634" width="60" height="30" as="geometry"/>
                </mxCell>
            </root>
        </mxGraphModel>
    </diagram>
    <diagram id="XauRXH4eaLImw2ZhIrqF" name="Page-3">
        <mxGraphModel dx="756" dy="318" grid="0" gridSize="10" guides="1" tooltips="1" connect="1" arrows="1" fold="1" page="0" pageScale="1" pageWidth="850" pageHeight="1100" math="0" shadow="0">
            <root>
                <mxCell id="0"/>
                <mxCell id="1" parent="0"/>
                <mxCell id="qZvOCOdHnmktm0yL7U6t-1" value="Machine #1" style="fillColor=none;strokeColor=#147EBA;dashed=1;verticalAlign=top;fontStyle=2;fontColor=#147EBA;labelBackgroundColor=#FFFFFF;fontFamily=Helvetica;fontSize=12;" vertex="1" parent="1">
                    <mxGeometry x="130" y="120" width="160" height="350" as="geometry"/>
                </mxCell>
                <mxCell id="qZvOCOdHnmktm0yL7U6t-10" style="edgeStyle=none;sketch=1;html=1;strokeWidth=1;endArrow=none;endFill=0;" edge="1" parent="1" source="qZvOCOdHnmktm0yL7U6t-2" target="qZvOCOdHnmktm0yL7U6t-4">
                    <mxGeometry relative="1" as="geometry"/>
                </mxCell>
                <mxCell id="qZvOCOdHnmktm0yL7U6t-2" value="Container A" style="rounded=0;whiteSpace=wrap;html=1;sketch=1;curveFitting=1;jiggle=2;fillColor=#d5e8d4;strokeColor=#82b366;" vertex="1" parent="1">
                    <mxGeometry x="150" y="148" width="120" height="40" as="geometry"/>
                </mxCell>
                <mxCell id="qZvOCOdHnmktm0yL7U6t-8" style="edgeStyle=none;sketch=1;html=1;strokeWidth=1;endArrow=none;endFill=0;" edge="1" parent="1" source="qZvOCOdHnmktm0yL7U6t-4" target="qZvOCOdHnmktm0yL7U6t-5">
                    <mxGeometry relative="1" as="geometry"/>
                </mxCell>
                <mxCell id="qZvOCOdHnmktm0yL7U6t-4" value="bridge" style="rounded=0;whiteSpace=wrap;html=1;sketch=1;curveFitting=1;jiggle=2;fillColor=#e1d5e7;strokeColor=#9673a6;" vertex="1" parent="1">
                    <mxGeometry x="150" y="220" width="120" height="40" as="geometry"/>
                </mxCell>
                <mxCell id="qZvOCOdHnmktm0yL7U6t-9" style="edgeStyle=none;sketch=1;html=1;strokeWidth=1;endArrow=none;endFill=0;" edge="1" parent="1" source="qZvOCOdHnmktm0yL7U6t-5" target="qZvOCOdHnmktm0yL7U6t-6">
                    <mxGeometry relative="1" as="geometry"/>
                </mxCell>
                <mxCell id="qZvOCOdHnmktm0yL7U6t-5" value="flannel0" style="rounded=0;whiteSpace=wrap;html=1;sketch=1;curveFitting=1;jiggle=2;fillColor=#f8cecc;strokeColor=#b85450;" vertex="1" parent="1">
                    <mxGeometry x="150" y="290" width="120" height="40" as="geometry"/>
                </mxCell>
                <mxCell id="qZvOCOdHnmktm0yL7U6t-12" style="edgeStyle=none;sketch=1;html=1;strokeWidth=1;endArrow=none;endFill=0;" edge="1" parent="1" source="qZvOCOdHnmktm0yL7U6t-6" target="qZvOCOdHnmktm0yL7U6t-11">
                    <mxGeometry relative="1" as="geometry"/>
                </mxCell>
                <mxCell id="qZvOCOdHnmktm0yL7U6t-6" value="flanneld" style="rounded=0;whiteSpace=wrap;html=1;sketch=1;curveFitting=1;jiggle=2;fillColor=#ffe6cc;strokeColor=#d79b00;" vertex="1" parent="1">
                    <mxGeometry x="150" y="357" width="120" height="40" as="geometry"/>
                </mxCell>
                <mxCell id="qZvOCOdHnmktm0yL7U6t-14" style="edgeStyle=orthogonalEdgeStyle;sketch=1;html=1;strokeWidth=1;endArrow=none;endFill=0;rounded=0;" edge="1" parent="1" source="qZvOCOdHnmktm0yL7U6t-11" target="qZvOCOdHnmktm0yL7U6t-13">
                    <mxGeometry relative="1" as="geometry">
                        <Array as="points">
                            <mxPoint x="210" y="530"/>
                        </Array>
                    </mxGeometry>
                </mxCell>
                <mxCell id="qZvOCOdHnmktm0yL7U6t-11" value="eth0" style="rounded=0;whiteSpace=wrap;html=1;sketch=1;curveFitting=1;jiggle=2;fillColor=#eeeeee;strokeColor=#36393d;" vertex="1" parent="1">
                    <mxGeometry x="150" y="420" width="120" height="40" as="geometry"/>
                </mxCell>
                <mxCell id="qZvOCOdHnmktm0yL7U6t-25" style="edgeStyle=orthogonalEdgeStyle;rounded=0;sketch=1;html=1;strokeWidth=1;fontSize=12;endArrow=none;endFill=0;" edge="1" parent="1" source="qZvOCOdHnmktm0yL7U6t-13" target="qZvOCOdHnmktm0yL7U6t-24">
                    <mxGeometry relative="1" as="geometry">
                        <Array as="points">
                            <mxPoint x="520" y="530"/>
                        </Array>
                    </mxGeometry>
                </mxCell>
                <mxCell id="qZvOCOdHnmktm0yL7U6t-13" value="ethernet hub" style="rounded=0;whiteSpace=wrap;html=1;sketch=1;curveFitting=1;jiggle=2;fillColor=#ffff88;strokeColor=#36393d;" vertex="1" parent="1">
                    <mxGeometry x="240" y="510" width="240" height="40" as="geometry"/>
                </mxCell>
                <mxCell id="qZvOCOdHnmktm0yL7U6t-15" value="Machine #2" style="fillColor=none;strokeColor=#147EBA;dashed=1;verticalAlign=top;fontStyle=2;fontColor=#147EBA;labelBackgroundColor=#FFFFFF;fontFamily=Helvetica;fontSize=12;" vertex="1" parent="1">
                    <mxGeometry x="440" y="122" width="160" height="350" as="geometry"/>
                </mxCell>
                <mxCell id="qZvOCOdHnmktm0yL7U6t-16" style="edgeStyle=none;sketch=1;html=1;strokeWidth=1;endArrow=none;endFill=0;" edge="1" parent="1" source="qZvOCOdHnmktm0yL7U6t-17" target="qZvOCOdHnmktm0yL7U6t-19">
                    <mxGeometry relative="1" as="geometry"/>
                </mxCell>
                <mxCell id="qZvOCOdHnmktm0yL7U6t-17" value="Container B" style="rounded=0;whiteSpace=wrap;html=1;sketch=1;curveFitting=1;jiggle=2;fillColor=#dae8fc;strokeColor=#6c8ebf;" vertex="1" parent="1">
                    <mxGeometry x="460" y="150" width="120" height="40" as="geometry"/>
                </mxCell>
                <mxCell id="qZvOCOdHnmktm0yL7U6t-18" style="edgeStyle=none;sketch=1;html=1;strokeWidth=1;endArrow=none;endFill=0;" edge="1" parent="1" source="qZvOCOdHnmktm0yL7U6t-19" target="qZvOCOdHnmktm0yL7U6t-21">
                    <mxGeometry relative="1" as="geometry"/>
                </mxCell>
                <mxCell id="qZvOCOdHnmktm0yL7U6t-19" value="bridge" style="rounded=0;whiteSpace=wrap;html=1;sketch=1;curveFitting=1;jiggle=2;fillColor=#e1d5e7;strokeColor=#9673a6;" vertex="1" parent="1">
                    <mxGeometry x="460" y="222" width="120" height="40" as="geometry"/>
                </mxCell>
                <mxCell id="qZvOCOdHnmktm0yL7U6t-20" style="edgeStyle=none;sketch=1;html=1;strokeWidth=1;endArrow=none;endFill=0;" edge="1" parent="1" source="qZvOCOdHnmktm0yL7U6t-21" target="qZvOCOdHnmktm0yL7U6t-23">
                    <mxGeometry relative="1" as="geometry"/>
                </mxCell>
                <mxCell id="qZvOCOdHnmktm0yL7U6t-21" value="flannel0" style="rounded=0;whiteSpace=wrap;html=1;sketch=1;curveFitting=1;jiggle=2;fillColor=#f8cecc;strokeColor=#b85450;" vertex="1" parent="1">
                    <mxGeometry x="460" y="292" width="120" height="40" as="geometry"/>
                </mxCell>
                <mxCell id="qZvOCOdHnmktm0yL7U6t-22" style="edgeStyle=none;sketch=1;html=1;strokeWidth=1;endArrow=none;endFill=0;" edge="1" parent="1" source="qZvOCOdHnmktm0yL7U6t-23" target="qZvOCOdHnmktm0yL7U6t-24">
                    <mxGeometry relative="1" as="geometry"/>
                </mxCell>
                <mxCell id="qZvOCOdHnmktm0yL7U6t-23" value="flanneld" style="rounded=0;whiteSpace=wrap;html=1;sketch=1;curveFitting=1;jiggle=2;fillColor=#ffe6cc;strokeColor=#d79b00;" vertex="1" parent="1">
                    <mxGeometry x="460" y="359" width="120" height="40" as="geometry"/>
                </mxCell>
                <mxCell id="qZvOCOdHnmktm0yL7U6t-24" value="eth0" style="rounded=0;whiteSpace=wrap;html=1;sketch=1;curveFitting=1;jiggle=2;fillColor=#eeeeee;strokeColor=#36393d;" vertex="1" parent="1">
                    <mxGeometry x="460" y="422" width="120" height="40" as="geometry"/>
                </mxCell>
            </root>
        </mxGraphModel>
    </diagram>
</mxfile>